<?xml version="1.0" encoding="utf-8"?>
<!-- Generator: Adobe Illustrator 16.0.0, SVG Export Plug-In . SVG Version: 6.00 Build 0)  -->
<!DOCTYPE svg PUBLIC "-//W3C//DTD SVG 1.1//EN" "http://www.w3.org/Graphics/SVG/1.1/DTD/svg11.dtd">
<svg version="1.1" id="圖層_1" xmlns="http://www.w3.org/2000/svg" xmlns:xlink="http://www.w3.org/1999/xlink" x="0px" y="0px"
	 width="1016px" height="269px" viewBox="0 0 1016 269" enable-background="new 0 0 1016 269" xml:space="preserve">
<g>
	<circle fill="#F3F8F4" cx="509.457" cy="187.601" r="29.5"/>
	<circle fill="#F3F8F4" cx="763.973" cy="78.585" r="29.5"/>
	<circle fill="#F3F8F4" cx="842.332" cy="186.484" r="29.5"/>
	<circle fill="#F3F8F4" cx="671.371" cy="154.12" r="44.893"/>
	<g>
		<g>
			<g>
				<path fill="none" stroke="#23A098" stroke-width="5" stroke-linecap="round" stroke-linejoin="round" d="M315.968,207.832
					c0,0-2.123,0.048-5.996,0.119"/>
				
					<path fill="none" stroke="#23A098" stroke-width="5" stroke-linecap="round" stroke-linejoin="round" stroke-dasharray="11.9168,11.9168" d="
					M298.061,208.151c-48.248,0.731-180.869,1.855-233.685-6.722c-67.467-10.957-31.977-37.922,20.09-42.469
					c52.07-4.545,321.626,15.852,321.623-10.963c-0.004-27.088-358.42-2.695-331.708-24.699
					c26.71-22.006,308.643,2.92,270.571-22.301c0,0-23.379-7.098-60.307-6.703"/>
				<path fill="none" stroke="#23A098" stroke-width="5" stroke-linecap="round" stroke-linejoin="round" d="M278.677,94.422
					c-1.965,0.063-3.964,0.147-5.996,0.256"/>
			</g>
		</g>
		<g>
			<ellipse fill="#85A100" cx="355.298" cy="228.023" rx="12.067" ry="2.408"/>
			<path fill="#85A100" d="M436.683,216.082c0,3.256-13.208,5.889-29.499,5.887c-16.291,0-29.497-2.635-29.497-5.889
				c0-3.252,13.207-5.887,29.498-5.887C423.476,210.195,436.683,212.832,436.683,216.082z"/>
		</g>
		<g>
			<g>
				
					<rect x="181.685" y="133.42" transform="matrix(0.8353 0.5498 -0.5498 0.8353 108.703 -84.2663)" fill="#66534E" width="26.606" height="11.735"/>
				
					<rect x="184.379" y="134.228" transform="matrix(-0.8352 -0.5499 0.5499 -0.8352 288.3114 357.0318)" fill="#463835" width="26.526" height="2.193"/>
			</g>
			<g>
				
					<rect x="162.783" y="117.666" transform="matrix(0.8352 0.5499 -0.5499 0.8352 98.7568 -75.927)" fill="#AEACAA" width="26.604" height="18.351"/>
				<polygon fill="#878583" points="175.546,115.502 174.234,120.479 189.082,131.295 189.082,131.295 192.242,126.492 				"/>
			</g>
			<g>
				
					<rect x="86.281" y="43.448" transform="matrix(0.8352 0.55 -0.55 0.8352 53.3012 -39.5895)" fill="#AEACAA" width="12.845" height="51.374"/>
				<polygon fill="#878583" points="101.465,44.148 90.914,60.174 90.914,60.174 101.167,67.717 101.949,66.771 112.194,51.211 				
					"/>
			</g>
			<g>
				<polygon fill="#66534E" points="108.829,56.32 87.305,89.016 164.752,134.881 179.551,112.402 				"/>
				<polygon fill="#453631" points="108.829,56.32 101.276,67.795 174.234,120.479 174.236,120.477 179.551,112.402 				"/>
			</g>
		</g>
		<g>
			<path fill="#321622" d="M267.946,67.18l-80.011-0.004c-5.453,0-9.872-3.629-9.871-8.107v-9.154c0-4.479,4.419-8.105,9.872-8.105
				l80.011,0.004c5.45,0,9.869,3.629,9.869,8.105v9.154C277.815,63.551,273.396,67.18,267.946,67.18z"/>
			<g>
				<path fill="#F1A900" d="M227.866,50.795c5.582,0.002,10.11,4.516,10.136,10.092l5.121,0.002
					c-0.022-8.402-6.844-15.211-15.254-15.215c-8.414,0-15.235,6.799-15.266,15.203l5.12,0.004
					C217.752,55.303,222.282,50.791,227.866,50.795z"/>
				<path fill="#F1A900" d="M265.157,182.072c4.165,0,7.542-3.375,7.543-7.541l0.005-107.172c0-4.166-3.378-7.543-7.542-7.543
					l-74.601-0.004c-4.165,0-7.542,3.377-7.542,7.543l-0.005,107.172c0,4.166,3.377,7.541,7.542,7.541L265.157,182.072z"/>
				<path fill="#DB4B43" d="M200.767,67.09h-4.04c-1.976,0-3.579-1.604-3.579-3.578l0.001-21.102c0-1.977,1.603-3.576,3.579-3.576
					h4.04c1.976,0,3.579,1.602,3.579,3.578l-0.001,21.1C204.345,65.488,202.743,67.092,200.767,67.09z"/>
				<path fill="#F1A900" d="M200.767,67.09h-4.04c-1.976,0-3.579-1.604-3.579-3.578l0.001-21.102c0-1.977,1.603-3.576,3.579-3.576
					h4.04c1.976,0,3.579,1.602,3.579,3.578l-0.001,21.1C204.345,65.488,202.743,67.092,200.767,67.09z"/>
				<path fill="#F1A900" d="M260.479,66.824h-4.041c-1.976,0-3.576-1.602-3.576-3.578l0.001-21.102c0-1.973,1.6-3.576,3.576-3.576
					h4.041c1.977,0,3.578,1.604,3.578,3.576l-0.001,21.102C264.057,65.223,262.456,66.824,260.479,66.824z"/>
				<defs>
					<filter id="Adobe_OpacityMaskFilter" filterUnits="userSpaceOnUse" x="182.897" y="60.156" width="89.743" height="57.832">
						<feFlood  style="flood-color:white;flood-opacity:1" result="back"/>
						<feBlend  in="SourceGraphic" in2="back" mode="normal"/>
					</filter>
				</defs>
				<mask maskUnits="userSpaceOnUse" x="182.897" y="60.156" width="89.743" height="57.832" id="SVGID_1_">
				</mask>
				<path mask="url(#SVGID_1_)" fill="#BE7D00" d="M272.628,69.826c0-5.342-3.377-9.666-7.543-9.668l-74.599-0.002
					c-4.166,0-7.544,4.324-7.544,9.666c0,0-3.201,48.164,44.249,48.166C274.641,117.99,272.628,69.826,272.628,69.826z"/>
				<path fill="#F1A900" d="M272.972,67.359c0-4.166-3.375-7.543-7.543-7.543l-74.6-0.004c-4.166,0-7.545,3.377-7.545,7.543
					c0,0-3.197,37.586,44.25,37.588C274.984,104.945,272.972,67.359,272.972,67.359z"/>
				<g>
					<g>
						<path fill="#321622" d="M204.05,70.496L204.05,70.496c-2.467-0.002-4.466,1.998-4.466,4.463l-0.002,58.688l4.63,3.344
							l4.3-3.342l0.002-58.688C208.514,72.494,206.514,70.496,204.05,70.496z"/>
					</g>
					<g>
						<path fill="#E1DEC7" d="M210.381,120.598l0-10.086c0-0.988-0.797-1.787-1.787-1.787l-9.326-0.002
							c-0.986,0-1.785,0.799-1.785,1.787l0,10.088c0,0.984,1.085,1.783,2.074,1.783l-0.009-11.668l9.004,0.002l-0.022,11.668
							C209.516,122.383,210.381,121.582,210.381,120.598z"/>
					</g>
					<g>
						<path fill="#E1DEC7" d="M203.983,115.057c0.741,0,1.346-0.605,1.346-1.35l0-3.609c0-0.742-0.605-1.346-1.346-1.346h-0.029
							c-0.74,0-1.346,0.604-1.346,1.346l0,3.609c0,0.744,0.606,1.35,1.346,1.35H203.983z"/>
					</g>
				</g>
				<g>
					<g>
						<path fill="#321622" d="M252.027,70.498L252.027,70.498c-2.467,0-4.468,1.998-4.468,4.465l-0.002,58.688l4.632,3.342
							l4.302-3.342l0.002-58.688C256.493,72.496,254.492,70.498,252.027,70.498z"/>
					</g>
					<g>
						<path fill="#E1DEC7" d="M258.358,120.6l0-10.086c0-0.988-0.8-1.787-1.784-1.787h-9.33c-0.984,0-1.787,0.799-1.787,1.787
							l0,10.086c0,0.984,1.09,1.785,2.076,1.785l-0.009-11.668h9.006l-0.025,11.668C257.492,122.385,258.358,121.584,258.358,120.6z
							"/>
					</g>
					<g>
						<path fill="#E1DEC7" d="M251.959,115.059c0.743,0,1.345-0.605,1.345-1.35l0-3.609c0-0.742-0.603-1.346-1.345-1.346h-0.027
							c-0.744,0-1.345,0.604-1.345,1.346l0,3.609c0,0.744,0.601,1.35,1.345,1.35H251.959z"/>
					</g>
				</g>
				<g>
					<path fill="#BE7D00" d="M247.033,177.203c2.259,0,4.089-1.826,4.089-4.084l0.001-28.562c0-2.258-1.829-4.088-4.088-4.088
						l-41.983-0.002c-2.258,0-4.086,1.828-4.086,4.086l-0.001,28.564c0,2.256,1.828,4.084,4.085,4.084L247.033,177.203z"/>
				</g>
				<g>
					<path fill="#321622" d="M247.034,158.707c2.259,0,4.088-1.828,4.089-4.086l0-10.064c0-2.258-1.829-4.088-4.088-4.088
						l-41.983-0.002c-2.258,0-4.086,1.828-4.086,4.086l0,10.066c0,2.256,1.828,4.086,4.085,4.086L247.034,158.707z"/>
				</g>
				<g>
					<circle fill="#E1DEC7" cx="227.305" cy="152.803" r="2.637"/>
				</g>
			</g>
		</g>
		<g>
			<circle fill="#FFFFFF" cx="303.795" cy="90.13" r="12.666"/>
			<path fill="#E0AD00" d="M311.623,90.131c0,4.328-3.505,7.828-7.828,7.828c-4.326,0-7.83-3.502-7.83-7.83
				c0-4.322,3.504-7.828,7.83-7.828C308.118,82.301,311.623,85.809,311.623,90.131z"/>
		</g>
		<g>
			<circle fill="#FFFFFF" cx="35.609" cy="173.838" r="12.665"/>
			<circle fill="#E0AD00" cx="35.609" cy="173.838" r="7.829"/>
		</g>
		<g>
			<path fill="#FFFFFF" d="M348.146,206.939c0,6.992-5.671,12.666-12.666,12.666c-6.994,0-12.665-5.674-12.664-12.668
				c0-6.996,5.671-12.664,12.666-12.664C342.476,194.273,348.146,199.943,348.146,206.939z"/>
			<circle fill="#E0AD00" cx="335.481" cy="206.938" r="7.83"/>
		</g>
		<g>
			<path fill="#98C20E" d="M384.417,148.189c-3.73-8.582-18.171-20.811-35.42-20.811c-17.249,0-31.694,12.227-35.424,20.809
				L384.417,148.189z"/>
			<path opacity="0.53" fill="#84A800" d="M349.366,148.188l35.051,0.002c-3.701-8.521-17.964-20.627-35.05-20.803L349.366,148.188z
				"/>
		</g>
		<g>
			<path fill="#98C20E" d="M165.339,176.932c-4.412-10.15-21.494-24.613-41.892-24.615c-20.398,0-37.481,14.461-41.893,24.611
				L165.339,176.932z"/>
			<path opacity="0.53" fill="#84A800" d="M123.884,176.93l41.455,0.002c-4.379-10.08-21.248-24.398-41.454-24.607L123.884,176.93z"
				/>
		</g>
		<g>
			<path fill="#98C20E" d="M313.79,198.117c-5.4-12.422-26.304-30.123-51.268-30.125c-24.966-0.002-45.872,17.699-51.269,30.121
				L313.79,198.117z"/>
			<path opacity="0.53" fill="#84A800" d="M263.057,198.115l50.732,0.002c-5.359-12.334-26.005-29.857-50.731-30.115
				L263.057,198.115z"/>
		</g>
	</g>
	<g>
		<path fill="#493127" d="M496.643,198.922l-2.018,2.691c-0.083,0.109,0.056,0.248,0.166,0.166l2.691-2.018
			c0.336-0.252,0.656-0.527,0.953-0.826l20.281-20.279l-0.969-0.965l-20.279,20.277
			C497.171,198.268,496.894,198.586,496.643,198.922z"/>
		<path fill="#F9D02C" d="M500.926,195.48c0,0-2.117,2.117-6.983,6.982l-3.358,3.357c-2.911-7.014,4.885-15.795,4.885-15.795
			L500.926,195.48z"/>
		<path fill="#E8B423" d="M501.367,195.926l5.014,5.01c0,0-8.784,7.797-15.796,4.885c7.262-7.262,10.341-10.34,10.341-10.34
			L501.367,195.926z"/>
		<path fill="#E8B423" d="M500.926,195.48c0,0-2.117,2.117-6.983,6.982c-0.154-0.061-0.251-0.201-0.264-0.391
			c-0.025-0.377,0.098-0.787,0.296-1.199c0.081-0.297,0.214-0.617,0.367-0.936c0.417-0.859,0.893-1.719,1.416-2.561
			c0.882-1.42,1.933-2.721,3.082-3.982L500.926,195.48z"/>
		<path fill="#D5AA33" d="M500.926,195.48c0,0-2.117,2.117-6.984,6.982c0.062,0.154,0.202,0.25,0.392,0.264
			c0.378,0.025,0.787-0.098,1.199-0.297c0.298-0.082,0.615-0.213,0.936-0.367c0.859-0.416,1.715-0.893,2.561-1.416
			c1.418-0.881,2.719-1.932,3.98-3.08L500.926,195.48z"/>
		<g>
			<path fill="#CE931C" d="M500.441,194.998l-2.972,2.971c-0.298,0.299-0.575,0.617-0.826,0.953l-2.018,2.691
				c-0.083,0.109,0.056,0.248,0.166,0.166l2.691-2.018c0.336-0.252,0.656-0.527,0.953-0.826l2.973-2.971L500.441,194.998z"/>
		</g>
		<g>
			<path fill="#493127" d="M510.66,197.529l-0.693-0.693c-0.199-0.201-0.199-0.527,0-0.727l13.336-13.336
				c0.201-0.201,0.527-0.201,0.727,0l0.693,0.693c0.201,0.201,0.201,0.525,0,0.727l-13.334,13.336
				C511.188,197.729,510.861,197.729,510.66,197.529z"/>
			<path fill="#A2A918" d="M527.273,191.723l-7.422-7.422c0,0,0.445-0.498,1.846-1.387c0,0,2.219,2.852,5.699,4.264
				c0.488,0.201,1.002,0.371,1.539,0.502C529.303,189.787,527.273,191.723,527.273,191.723z"/>
			<path fill="#76770C" d="M523.23,193.385c-0.115-0.469-0.258-0.92-0.426-1.352c-1.385-3.588-4.34-5.889-4.34-5.889
				c0.857-1.367,1.387-1.844,1.387-1.844l7.422,7.422C527.273,191.723,525.338,193.752,523.23,193.385z"/>
			<path fill="#B6B625" d="M527.273,191.723l-1.252-1.25c0.732-0.752,1.777-2.02,1.418-3.061c-0.025-0.078-0.041-0.156-0.043-0.234
				c0.488,0.201,1.002,0.371,1.539,0.502C529.303,189.787,527.273,191.723,527.273,191.723z"/>
			<path fill="#91912F" d="M523.23,193.385c-0.115-0.469-0.258-0.92-0.426-1.352c1.238-0.047,2.33-0.65,3.201-1.543
				c0.004-0.004,0.01-0.012,0.016-0.018l1.252,1.25C527.273,191.723,525.338,193.752,523.23,193.385z"/>
		</g>
		<g>
			<polygon fill="#A2A918" points="511.979,201.332 511.738,200.607 511.168,201.291 510.889,200.605 510.27,201.141 
				510.016,200.365 509.465,200.912 509.266,200.016 509.162,199.549 513.68,200.025 513.463,200.479 513.264,200.9 			"/>
			<path fill="#76770C" d="M514.312,207.146l-0.828-0.066l-4.223-0.33l-0.713-0.738l-0.082-0.775c0,0,0.111,0.002,0.367,0.023
				c0.432,0.037,1.277,0.131,2.727,0.369C513.875,206.008,514.312,207.146,514.312,207.146z"/>
			<path fill="#A2A918" d="M514.312,207.146l-0.828-0.066c-1.217-0.699-2.641-1.033-3.998-1.363
				c-0.312-0.074-0.525-0.246-0.652-0.457c0.432,0.037,1.277,0.131,2.727,0.369C513.875,206.008,514.312,207.146,514.312,207.146z"
				/>
			<polygon fill="#76770C" points="513.463,200.479 509.266,200.016 509.162,199.549 513.68,200.025 			"/>
			<path fill="#B37939" d="M507.703,207.016c-0.041,0-0.08-0.016-0.111-0.045c-0.062-0.062-0.062-0.162,0-0.225l0.844-0.846
				c0.062-0.062,0.164-0.062,0.227,0c0.061,0.062,0.061,0.162,0,0.225l-0.846,0.846C507.785,207,507.744,207.016,507.703,207.016z"
				/>
			<path fill="#EE7B1F" d="M514.254,200.355c-0.5-0.5-1.307-0.5-1.807,0l-4.201,4.199c-0.498,0.498-0.498,1.307,0,1.805
				L514.254,200.355z"/>
			<path fill="#ED651F" d="M508.246,206.359c0.5,0.498,1.309,0.498,1.807,0l4.201-4.199c0.498-0.498,0.498-1.307,0-1.805
				L508.246,206.359z"/>
			<path fill="#B37939" d="M507.275,208.129c-0.205,0-0.408-0.078-0.564-0.232c-0.15-0.15-0.234-0.352-0.234-0.564
				s0.084-0.414,0.234-0.564c0.311-0.311,0.816-0.311,1.129,0c0.311,0.312,0.311,0.816,0,1.129
				C507.684,208.051,507.48,208.129,507.275,208.129z M507.275,206.854c-0.123,0-0.246,0.047-0.338,0.141
				c-0.092,0.09-0.141,0.209-0.141,0.338s0.049,0.248,0.141,0.34c0.186,0.186,0.49,0.186,0.676,0c0.188-0.188,0.188-0.492,0-0.68
				C507.521,206.9,507.398,206.854,507.275,206.854z"/>
			<circle fill="#493127" cx="509.125" cy="205.428" r="0.584"/>
		</g>
		<g>
			<path fill="#76770C" d="M507.689,174.326l2.029,2.029l-9.176,9.176C500.752,180.994,507.689,174.326,507.689,174.326z"/>
			<path fill="#A2A918" d="M507.689,174.326l0.744,0.746c-1.73,1.535-3.242,3.295-4.463,5.262c-0.629,1.012-1.393,2.229-1.713,3.482
				l-1.715,1.715C500.752,180.994,507.689,174.326,507.689,174.326z"/>
			<path fill="#F6A924" d="M517.459,167.336L517.459,167.336c0.354,0.354,0.354,0.926,0,1.281l-7.74,7.738l-1.279-1.279l7.738-7.74
				C516.531,166.982,517.105,166.982,517.459,167.336z"/>
			<path fill="#EE7B1F" d="M508.439,175.076l7.74-7.74c0.352-0.352,0.926-0.352,1.279,0c0.232,0.232,0.311,0.559,0.24,0.855h-0.002
				c-0.035,0.156-0.115,0.305-0.238,0.426l-7.738,7.74L508.439,175.076z"/>
			<path fill="#ED651F" d="M509.078,175.717l7.244-7.244c0.373-0.373,0.916-0.465,1.375-0.281c-0.035,0.156-0.115,0.305-0.238,0.426
				l-7.738,7.74L509.078,175.717z"/>
		</g>
		<path fill="#7C654C" d="M518.521,179.395c-0.143,0-0.281-0.057-0.383-0.158l-0.969-0.967c-0.121-0.123-0.178-0.297-0.15-0.469
			l0.518-3.299c0.018-0.113,0.07-0.217,0.152-0.299l0.838-0.838c0.211-0.211,0.553-0.211,0.764,0l1.875,1.875l0,0l1.875,1.877
			c0.211,0.209,0.211,0.553,0,0.764l-0.838,0.838c-0.082,0.082-0.186,0.135-0.299,0.152l-3.299,0.518
			C518.578,179.393,518.549,179.395,518.521,179.395z M518.131,177.697l0.578,0.578l2.854-0.447l0.33-0.33l-2.984-2.984l-0.33,0.332
			L518.131,177.697z"/>
	</g>
	<g>
		<g>
			<path fill="#91912F" d="M840.893,182.201h6.59c1.744,0,3.158,1.414,3.158,3.158v11.758c0,1.479-1.201,2.678-2.68,2.678h-7.068
				V182.201z"/>
			<path fill="#76770C" d="M842.811,201.318h-14.295c-2.674,0-4.842-2.168-4.842-4.844l0.002-18.193
				c0-4.631,3.756-8.387,8.387-8.387h7.203c4.633,0,8.389,3.756,8.389,8.389v18.193C847.654,199.15,845.486,201.318,842.811,201.318
				z"/>
			<path fill="#91912F" d="M830.271,199.795h-6.592c-1.742,0-3.156-1.414-3.156-3.158v-11.756c0-1.48,1.199-2.68,2.68-2.68h7.068
				V199.795z"/>
			<path fill="#614D44" d="M839.201,174.826h-7.357c-0.717,0-1.301-0.584-1.301-1.301v-4.852c0-0.717,0.584-1.301,1.301-1.301h7.357
				c0.717,0,1.301,0.584,1.301,1.301v4.852C840.502,174.242,839.918,174.826,839.201,174.826z M831.844,167.848
				c-0.457,0-0.826,0.371-0.826,0.826v4.852c0,0.455,0.369,0.826,0.826,0.826h7.357c0.455,0,0.826-0.371,0.826-0.826v-4.852
				c0-0.455-0.371-0.826-0.826-0.826H831.844z"/>
			<path fill="#A2A918" d="M835.664,169.895v31.424h-7.148c-2.389,0-4.375-1.732-4.77-4.01l0,0
				c-0.047-0.271-0.072-0.549-0.072-0.834l0.002-18.193c0-2.48,1.076-4.711,2.791-6.246c1.484-1.332,3.445-2.141,5.596-2.141
				H835.664z"/>
			<path fill="#76770C" d="M835.664,193.746v7.572h-7.148c-2.389,0-4.375-1.732-4.77-4.01l0,0
				C823.746,197.309,826.719,193.746,835.664,193.746z"/>
			<path fill="#626209" d="M835.664,193.746v7.572h7.146c2.391,0,4.377-1.73,4.771-4.008v-0.002
				C847.582,197.309,844.607,193.748,835.664,193.746z"/>
			<path fill="#76770C" d="M835.664,169.895v12.307h-4.381c-2.662,0-4.816-2.158-4.816-4.818v-5.348
				c1.484-1.332,3.445-2.141,5.596-2.141H835.664z"/>
			<path fill="#626209" d="M835.664,169.895v12.307h4.379c2.662,0,4.82-2.156,4.82-4.816v-5.35c-1.484-1.33-3.447-2.141-5.598-2.141
				H835.664z"/>
			<path fill="#493127" d="M829.447,187.818L829.447,187.818c-0.49,0-0.889-0.398-0.889-0.887l0.002-7.529h1.775l-0.002,7.529
				C830.334,187.42,829.938,187.818,829.447,187.818z"/>
			<path fill="#493127" d="M841.686,187.82L841.686,187.82c-0.49-0.002-0.889-0.4-0.889-0.889l0.002-7.529l1.775,0.002v7.527
				C842.574,187.422,842.176,187.82,841.686,187.82z"/>
			<rect x="828.561" y="179.402" fill="#EE7B1F" width="1.775" height="0.557"/>
			<rect x="840.799" y="179.403" fill="#EE7B1F" width="1.775" height="0.557"/>
			<path fill="#FA7315" d="M830.779,186.625h-2.664c-0.131,0-0.238-0.105-0.238-0.236v-2.664c0-0.133,0.107-0.238,0.238-0.238h2.664
				c0.131,0,0.236,0.105,0.236,0.238v2.664C831.016,186.52,830.91,186.625,830.779,186.625z M828.352,186.15h2.189v-2.189h-2.189
				V186.15z"/>
			<path fill="#FA7315" d="M843.018,186.625h-2.664c-0.131,0-0.236-0.105-0.236-0.236v-2.664c0-0.133,0.105-0.238,0.236-0.238
				l2.664,0.002c0.131,0,0.238,0.105,0.238,0.236v2.664C843.256,186.52,843.148,186.625,843.018,186.625z M840.59,186.15
				l2.191,0.002v-2.191h-2.191V186.15z"/>
			<path fill="#6B4E32" d="M838.682,168.541h-6.203c-0.4,0-0.727-0.326-0.727-0.727v-0.281c0-0.4,0.326-0.727,0.727-0.727h6.203
				c0.4,0,0.727,0.326,0.727,0.727v0.281C839.408,168.215,839.082,168.541,838.682,168.541z"/>
		</g>
		<g>
			<path fill="#F9D02C" d="M863.217,186.516l-0.002,18.834l-5.387-0.002v-1.344h-3.195v1.344h-12.605v-4.396
				c0-0.191,0.014-0.381,0.039-0.564c0.275-2.002,1.992-3.543,4.07-3.543h3.035c2.123,0,3.842-1.721,3.842-3.842v-6.488
				L863.217,186.516z"/>
			<ellipse fill="#493127" cx="842.825" cy="205.348" rx="0.798" ry="0.814"/>
			<ellipse fill="#493127" cx="843.927" cy="205.348" rx="0.798" ry="0.814"/>
			<ellipse fill="#493127" cx="845.028" cy="205.348" rx="0.798" ry="0.814"/>
			<ellipse fill="#493127" cx="846.129" cy="205.348" rx="0.799" ry="0.814"/>
			<ellipse fill="#493127" cx="847.229" cy="205.348" rx="0.798" ry="0.814"/>
			<ellipse fill="#493127" cx="848.33" cy="205.348" rx="0.799" ry="0.814"/>
			<ellipse fill="#493127" cx="849.432" cy="205.348" rx="0.799" ry="0.814"/>
			<ellipse fill="#493127" cx="850.532" cy="205.348" rx="0.798" ry="0.814"/>
			<ellipse fill="#493127" cx="851.633" cy="205.348" rx="0.799" ry="0.814"/>
			<ellipse fill="#493127" cx="852.734" cy="205.348" rx="0.799" ry="0.814"/>
			<ellipse fill="#493127" cx="853.835" cy="205.348" rx="0.798" ry="0.814"/>
			<ellipse fill="#493127" cx="858.013" cy="205.348" rx="0.798" ry="0.814"/>
			<ellipse fill="#493127" cx="859.114" cy="205.348" rx="0.798" ry="0.814"/>
			<ellipse fill="#493127" cx="860.215" cy="205.348" rx="0.797" ry="0.814"/>
			<ellipse fill="#493127" cx="861.315" cy="205.348" rx="0.798" ry="0.814"/>
			<ellipse fill="#493127" cx="862.417" cy="205.349" rx="0.798" ry="0.813"/>
			<path fill="#E8B423" d="M855.734,186.514v7.646c0,3.439-2.787,6.227-6.225,6.227h-7.443c0.275-2.002,1.992-3.543,4.07-3.543
				h3.035c2.123,0,3.842-1.721,3.842-3.842v-6.488H855.734z"/>
			<path fill="#493127" d="M863.574,189.477h-10.969c-0.314,0-0.568-0.256-0.568-0.568v-1.828c0-0.312,0.254-0.566,0.568-0.566
				l10.969,0.002c0.314,0,0.568,0.252,0.568,0.566v1.826C864.143,189.223,863.889,189.477,863.574,189.477z"/>
			<rect x="842.027" y="204.004" fill="#6B4E32" width="12.605" height="1.344"/>
			<rect x="857.215" y="204.004" fill="#6B4E32" width="6" height="1.344"/>
			<path fill="#614D44" d="M854.635,191.023h-1.676c-0.131,0-0.238-0.105-0.238-0.236c0-0.133,0.107-0.238,0.238-0.238h1.676
				c0.131,0,0.236,0.105,0.236,0.238C854.871,190.918,854.766,191.023,854.635,191.023z"/>
			<path fill="#614D44" d="M854.41,192.275c-0.004,0-0.01,0-0.016,0l-1.488-0.094c-0.131-0.01-0.23-0.121-0.221-0.252
				c0.006-0.131,0.117-0.23,0.25-0.223l1.49,0.094c0.131,0.008,0.229,0.121,0.221,0.252
				C854.639,192.178,854.535,192.275,854.41,192.275z"/>
			<path fill="#614D44" d="M854.098,193.688c-0.023,0-0.047-0.004-0.07-0.012l-1.232-0.385c-0.125-0.037-0.195-0.17-0.156-0.295
				s0.172-0.195,0.297-0.158l1.232,0.387c0.125,0.037,0.195,0.17,0.156,0.295C854.293,193.621,854.199,193.688,854.098,193.688z"/>
			<path fill="#614D44" d="M853.594,194.947c-0.037,0-0.072-0.008-0.107-0.025l-1.027-0.523c-0.117-0.061-0.164-0.203-0.104-0.318
				c0.059-0.119,0.201-0.164,0.318-0.105l1.027,0.523c0.117,0.061,0.164,0.203,0.104,0.32
				C853.764,194.9,853.68,194.947,853.594,194.947z"/>
			<path fill="#614D44" d="M852.865,196.168c-0.057,0-0.115-0.02-0.16-0.061l-0.828-0.756c-0.098-0.088-0.104-0.236-0.016-0.334
				s0.238-0.104,0.336-0.016l0.828,0.754c0.096,0.088,0.104,0.238,0.016,0.336C852.994,196.143,852.93,196.168,852.865,196.168z"/>
			<path fill="#614D44" d="M851.781,197.078c-0.074,0-0.146-0.035-0.193-0.1l-0.615-0.859c-0.078-0.107-0.053-0.256,0.053-0.33
				c0.107-0.078,0.256-0.053,0.332,0.053l0.617,0.859c0.076,0.107,0.051,0.254-0.055,0.332
				C851.877,197.062,851.83,197.078,851.781,197.078z"/>
			<path fill="#614D44" d="M850.475,197.713c-0.1,0-0.191-0.062-0.225-0.16l-0.338-0.982c-0.041-0.123,0.023-0.258,0.148-0.301
				c0.123-0.041,0.258,0.023,0.301,0.148l0.336,0.98c0.043,0.125-0.021,0.26-0.146,0.303
				C850.525,197.709,850.5,197.713,850.475,197.713z"/>
			<path fill="#614D44" d="M848.902,197.898c-0.133,0-0.238-0.105-0.238-0.236v-1c0-0.131,0.105-0.236,0.238-0.236
				c0.131,0,0.236,0.105,0.236,0.236v1C849.139,197.793,849.033,197.898,848.902,197.898z"/>
		</g>
	</g>
	<g>
		<g>
			<path fill="#F9D02C" d="M767.648,74.861c0,0-6.354-6.066-9.801-0.396c-1.668,2.74-1.492,3.936-5.277,4.215
				s-5.965,2.855-7.092,4.066c-3.129,3.363-1.725,8.725,1.918,12.367C753.279,89.23,767.648,74.861,767.648,74.861z"/>
			<path fill="#E8B423" d="M767.648,74.861c0,0,6.066,6.354,0.396,9.801c-2.74,1.668-3.938,1.492-4.217,5.277
				s-2.678,5.789-4.066,7.092c-3.35,3.145-8.725,1.723-12.365-1.918C753.279,89.23,767.648,74.861,767.648,74.861z"/>
			<circle fill="#6B4E32" cx="759.504" cy="83.007" r="3.372"/>
			
				<rect x="769.233" y="57.572" transform="matrix(0.7071 0.7071 -0.7071 0.7071 276.4588 -524.0595)" fill="#6B4E32" width="3.185" height="28.228"/>
			<circle fill="#493127" cx="759.502" cy="83.007" r="2.683"/>
			<path fill="#493127" d="M776.502,63.758l0.148-1.172c0.047-0.385,0.223-0.74,0.494-1.014l2.418-2.414
				c0.506-0.506,1.324-0.506,1.83,0l0.98,0.98l-4.746,4.744C777.627,64.883,776.236,63.492,776.502,63.758z"/>
			<path fill="#493127" d="M778.754,66.01l1.174-0.148c0.381-0.047,0.738-0.223,1.01-0.494l2.418-2.418
				c0.504-0.506,0.504-1.324,0-1.83l-0.982-0.98l-4.746,4.744C777.627,64.883,779.02,66.275,778.754,66.01z"/>
			<path fill="#493127" d="M753.514,92.287l-3.293-3.293c-0.139-0.137-0.363-0.137-0.5,0l0,0c-0.139,0.141-0.139,0.365,0,0.502
				l3.293,3.293c0.137,0.137,0.361,0.137,0.5,0l0,0C753.652,92.65,753.652,92.426,753.514,92.287z"/>
			<path fill="#F9D02C" d="M779.332,59.029c-0.158,0.156-0.414,0.156-0.572,0c-0.158-0.16-0.158-0.416,0-0.576
				c0.158-0.158,0.414-0.158,0.572,0C779.492,58.613,779.492,58.869,779.332,59.029z"/>
			<circle fill="#F9D02C" cx="777.876" cy="59.911" r="0.406"/>
			<circle fill="#F9D02C" cx="776.618" cy="61.168" r="0.405"/>
			<path fill="#F8C945" d="M779.996,59.814c-0.033,0-0.064-0.012-0.09-0.035l-0.949-0.949c-0.049-0.049-0.049-0.129,0-0.178
				c0.051-0.047,0.129-0.047,0.178,0l0.949,0.949c0.049,0.051,0.049,0.129,0,0.178C780.059,59.803,780.027,59.814,779.996,59.814z"
				/>
			<path fill="#F8C945" d="M778.826,60.984c-0.033,0-0.064-0.012-0.09-0.035L777.787,60c-0.049-0.049-0.049-0.129,0-0.178
				c0.049-0.047,0.129-0.047,0.178,0l0.949,0.949c0.049,0.051,0.049,0.129,0,0.178C778.889,60.973,778.857,60.984,778.826,60.984z"
				/>
			<path fill="#F8C945" d="M777.566,62.242c-0.031,0-0.062-0.012-0.088-0.037l-0.949-0.949c-0.049-0.047-0.049-0.127,0-0.176
				s0.129-0.049,0.176,0l0.951,0.949c0.049,0.049,0.049,0.129,0,0.176C777.631,62.23,777.6,62.242,777.566,62.242z"/>
			<circle fill="#F9D02C" cx="783.793" cy="63.488" r="0.406"/>
			<circle fill="#F9D02C" cx="782.622" cy="64.658" r="0.405"/>
			<circle fill="#F9D02C" cx="781.364" cy="65.916" r="0.407"/>
			<path fill="#F8C945" d="M783.793,63.613c-0.031,0-0.064-0.014-0.09-0.037l-0.947-0.949c-0.049-0.049-0.049-0.127,0-0.178
				c0.047-0.049,0.127-0.049,0.176,0l0.949,0.949c0.049,0.049,0.049,0.129,0,0.178C783.857,63.6,783.824,63.613,783.793,63.613z"/>
			<path fill="#F8C945" d="M782.623,64.783c-0.031,0-0.064-0.014-0.088-0.037l-0.949-0.949c-0.051-0.049-0.051-0.127,0-0.178
				c0.047-0.049,0.127-0.049,0.176,0l0.949,0.949c0.049,0.049,0.049,0.129,0,0.178C782.688,64.77,782.654,64.783,782.623,64.783z"/>
			<path fill="#F8C945" d="M781.363,66.041c-0.031,0-0.062-0.012-0.088-0.037l-0.949-0.949c-0.047-0.049-0.047-0.127,0-0.176
				c0.049-0.049,0.129-0.049,0.178,0l0.949,0.949c0.047,0.049,0.047,0.129,0,0.176C781.428,66.029,781.396,66.041,781.363,66.041z"
				/>
			
				<rect x="766.406" y="53.304" transform="matrix(0.7032 0.711 -0.711 0.7032 280.8766 -522.7295)" fill="#FA7315" width="0.25" height="43.495"/>
			
				<rect x="766.893" y="53.789" transform="matrix(0.7071 0.7071 -0.7071 0.7071 278.067 -520.239)" fill="#FA7315" width="0.249" height="43.495"/>
			
				<rect x="767.379" y="54.275" transform="matrix(0.7071 0.7071 -0.7071 0.7071 278.5524 -520.4401)" fill="#FA7315" width="0.249" height="43.495"/>
		</g>
		<g>
			<g>
				<path fill="#EE7B1F" d="M761.023,68.385c-2.295,2.295-6.002,2.318-8.33,0.072c-0.023-0.025-0.049-0.049-0.074-0.074
					c-2.32-2.32-2.32-6.082,0-8.404c2.32-2.32,6.084-2.32,8.404,0.002c0.578,0.578,1.012,1.244,1.303,1.957
					C763.201,64.086,762.768,66.641,761.023,68.385z"/>
				<g>
					<path fill="#ED651F" d="M762.326,61.938c-0.049,0.305-0.094,0.609-0.168,0.875c-0.594,2.092-1.518,3.764-3.621,4.613
						c-0.99,0.402-2.053,0.594-3.107,0.77c-0.9,0.148-1.828,0.285-2.736,0.262c2.328,2.246,6.035,2.223,8.33-0.072
						C762.768,66.641,763.201,64.086,762.326,61.938z"/>
					<path fill="#ED651F" d="M751.703,68.383c-0.018-0.006-0.078-0.02-0.123-0.018c0.002,0.002,0.006,0.002,0.008,0.004
						C751.621,68.369,751.664,68.377,751.703,68.383z"/>
				</g>
				<polygon fill="#493127" points="757.488,67.32 754.371,65.732 754.918,62.277 758.373,61.732 759.961,64.848 				"/>
				<path fill="#493127" d="M762.32,66.436c0.422-1.025,0.541-2.148,0.361-3.229l-1.354,1.861L762.32,66.436z"/>
				<path fill="#493127" d="M758.818,60.381l2.32-0.279c-0.037-0.041-0.074-0.082-0.115-0.121c-0.893-0.893-2-1.441-3.154-1.646
					L758.818,60.381z"/>
				<path fill="#493127" d="M759.6,69.438l-1.955-1.039l-1.908,1.625C757.037,70.266,758.402,70.07,759.6,69.438z"/>
				<path fill="#493127" d="M751.553,61.432l2.176-0.344l0.344-2.176c-0.521,0.271-1.014,0.629-1.453,1.066
					C752.182,60.418,751.824,60.908,751.553,61.432z"/>
				<path fill="#493127" d="M752.654,68.414l0.256-2.125l-1.902-0.883c0.229,1.092,0.766,2.129,1.611,2.977
					C752.631,68.395,752.643,68.404,752.654,68.414z"/>
			</g>
			<path fill="#5E4F47" d="M752.91,66.414c-0.049,0-0.098-0.031-0.115-0.08c-0.025-0.064,0.006-0.137,0.07-0.162l1.463-0.557
				c0.062-0.023,0.135,0.01,0.16,0.072c0.025,0.066-0.008,0.137-0.072,0.162l-1.461,0.557
				C752.939,66.412,752.926,66.414,752.91,66.414z"/>
			<path fill="#5E4F47" d="M754.918,62.404c-0.031,0-0.062-0.014-0.088-0.037l-1.191-1.191c-0.047-0.051-0.047-0.129,0-0.178
				c0.049-0.049,0.129-0.049,0.178,0l1.191,1.191c0.049,0.049,0.049,0.129,0,0.178C754.982,62.391,754.951,62.404,754.918,62.404z"
				/>
			<path fill="#5E4F47" d="M758.373,61.857c-0.012,0-0.025-0.002-0.037-0.008c-0.066-0.021-0.102-0.092-0.08-0.156l0.445-1.352
				c0.02-0.064,0.092-0.1,0.156-0.078c0.066,0.021,0.102,0.092,0.08,0.158l-0.445,1.35
				C758.475,61.822,758.426,61.857,758.373,61.857z"/>
			<path fill="#5E4F47" d="M761.328,65.193c-0.008,0-0.014,0-0.02,0l-1.367-0.223c-0.068-0.01-0.115-0.074-0.104-0.143
				s0.076-0.113,0.145-0.104l1.365,0.221c0.068,0.012,0.115,0.074,0.104,0.145C761.441,65.15,761.389,65.193,761.328,65.193z"/>
			<path fill="#5E4F47" d="M757.645,68.523c-0.061,0-0.113-0.045-0.123-0.107l-0.156-1.076c-0.012-0.068,0.037-0.133,0.105-0.141
				c0.068-0.012,0.131,0.035,0.141,0.104l0.158,1.078c0.01,0.066-0.039,0.131-0.105,0.141
				C757.656,68.523,757.65,68.523,757.645,68.523z"/>
		</g>
		<g>
			<path fill="#5E4F47" d="M774.148,81.727c-0.012,0-0.025-0.002-0.037-0.008c-0.047-0.02-0.07-0.074-0.049-0.123l2.691-6.215
				c0.021-0.049,0.076-0.07,0.123-0.051c0.049,0.023,0.07,0.076,0.049,0.123l-2.691,6.217
				C774.219,81.705,774.186,81.727,774.148,81.727z"/>
			<path fill="#5E4F47" d="M774.584,83.461c-0.014,0-0.025-0.002-0.037-0.008c-0.049-0.02-0.07-0.074-0.049-0.123l3.82-8.818
				c0.021-0.047,0.076-0.068,0.123-0.047c0.049,0.02,0.07,0.074,0.049,0.123l-3.82,8.818
				C774.654,83.441,774.619,83.461,774.584,83.461z"/>
			<path fill="#5E4F47" d="M775.285,84.586c-0.014,0-0.025-0.004-0.037-0.01c-0.049-0.02-0.07-0.076-0.051-0.121l4.42-10.199
				c0.02-0.049,0.076-0.07,0.123-0.049c0.047,0.02,0.068,0.076,0.049,0.123l-4.418,10.199
				C775.355,84.564,775.32,84.586,775.285,84.586z"/>
			<path fill="#5E4F47" d="M776.148,85.332c-0.014,0-0.025-0.002-0.037-0.008c-0.047-0.021-0.07-0.076-0.049-0.123l4.691-10.826
				c0.02-0.047,0.074-0.068,0.123-0.049c0.047,0.02,0.068,0.074,0.047,0.123l-4.689,10.826
				C776.219,85.311,776.184,85.332,776.148,85.332z"/>
			<path fill="#5E4F47" d="M777.146,85.77c-0.012,0-0.025-0.002-0.037-0.008c-0.047-0.02-0.07-0.076-0.049-0.123l4.693-10.836
				c0.021-0.047,0.076-0.07,0.123-0.049c0.049,0.021,0.07,0.076,0.049,0.123l-4.693,10.836
				C777.217,85.748,777.182,85.77,777.146,85.77z"/>
			<path fill="#5E4F47" d="M778.275,85.902c-0.012,0-0.025-0.002-0.037-0.008c-0.047-0.02-0.068-0.074-0.049-0.121l4.434-10.238
				c0.021-0.047,0.076-0.068,0.123-0.047c0.049,0.02,0.07,0.074,0.049,0.123l-4.434,10.234
				C778.346,85.881,778.312,85.902,778.275,85.902z"/>
			<path fill="#5E4F47" d="M779.568,85.662c-0.014,0-0.027-0.002-0.037-0.008c-0.049-0.02-0.07-0.076-0.051-0.123l3.85-8.887
				c0.021-0.049,0.076-0.07,0.125-0.051c0.047,0.021,0.068,0.076,0.049,0.125l-3.852,8.887
				C779.639,85.641,779.604,85.662,779.568,85.662z"/>
			<path fill="#5E4F47" d="M781.145,84.758c-0.012,0-0.023-0.002-0.035-0.006c-0.049-0.021-0.07-0.076-0.049-0.125l2.691-6.215
				c0.021-0.047,0.076-0.068,0.123-0.049c0.047,0.021,0.07,0.076,0.049,0.123l-2.693,6.217
				C781.217,84.738,781.182,84.758,781.145,84.758z"/>
			<path fill="#5E4F47" d="M783.182,76.32c-0.012,0-0.025-0.004-0.037-0.008l-4.232-1.834c-0.049-0.021-0.07-0.076-0.049-0.123
				c0.02-0.049,0.076-0.07,0.123-0.049l4.232,1.834c0.049,0.02,0.07,0.074,0.049,0.123C783.252,76.299,783.219,76.32,783.182,76.32z
				"/>
			<path fill="#5E4F47" d="M783.705,77.59c-0.012,0-0.023-0.002-0.037-0.008l-6.043-2.619c-0.047-0.02-0.068-0.074-0.047-0.123
				c0.02-0.047,0.076-0.068,0.123-0.049l6.041,2.619c0.049,0.021,0.07,0.076,0.051,0.123
				C783.777,77.568,783.742,77.59,783.705,77.59z"/>
			<path fill="#5E4F47" d="M783.887,78.711c-0.012,0-0.025-0.004-0.037-0.008l-7.164-3.104c-0.049-0.021-0.07-0.076-0.049-0.125
				c0.02-0.047,0.074-0.068,0.123-0.047l7.164,3.104c0.047,0.021,0.068,0.076,0.049,0.123
				C783.957,78.689,783.922,78.711,783.887,78.711z"/>
			<path fill="#5E4F47" d="M783.873,79.748c-0.012,0-0.025-0.002-0.037-0.008l-7.898-3.422c-0.047-0.02-0.07-0.076-0.049-0.123
				c0.02-0.047,0.076-0.07,0.123-0.049l7.9,3.422c0.045,0.021,0.068,0.076,0.047,0.123C783.943,79.727,783.91,79.748,783.873,79.748
				z"/>
			<path fill="#5E4F47" d="M783.715,80.723c-0.012,0-0.025-0.002-0.037-0.008l-8.342-3.613c-0.047-0.021-0.07-0.076-0.049-0.123
				c0.02-0.049,0.076-0.07,0.123-0.051l8.342,3.615c0.047,0.02,0.068,0.076,0.049,0.123
				C783.785,80.701,783.75,80.723,783.715,80.723z"/>
			<path fill="#5E4F47" d="M783.434,81.645c-0.012,0-0.025-0.002-0.037-0.008l-8.543-3.701c-0.047-0.02-0.068-0.076-0.049-0.123
				c0.021-0.047,0.076-0.068,0.125-0.047l8.541,3.699c0.049,0.021,0.07,0.076,0.049,0.123
				C783.504,81.623,783.471,81.645,783.434,81.645z"/>
			<path fill="#5E4F47" d="M783.043,82.518c-0.012,0-0.025-0.002-0.037-0.008l-8.521-3.691c-0.047-0.02-0.068-0.076-0.047-0.123
				c0.02-0.047,0.074-0.07,0.121-0.049l8.521,3.691c0.047,0.021,0.068,0.076,0.049,0.123
				C783.113,82.496,783.078,82.518,783.043,82.518z"/>
			<path fill="#5E4F47" d="M782.537,83.344c-0.012,0-0.023-0.004-0.037-0.01l-8.271-3.584c-0.047-0.02-0.068-0.076-0.049-0.123
				c0.021-0.047,0.076-0.068,0.123-0.047l8.271,3.582c0.049,0.021,0.07,0.076,0.049,0.125
				C782.609,83.322,782.574,83.344,782.537,83.344z"/>
			<path fill="#5E4F47" d="M781.908,84.113c-0.012,0-0.025-0.002-0.037-0.008l-7.773-3.369c-0.049-0.02-0.07-0.074-0.049-0.123
				c0.021-0.047,0.076-0.068,0.123-0.049l7.775,3.369c0.047,0.02,0.068,0.074,0.047,0.123
				C781.979,84.092,781.945,84.113,781.908,84.113z"/>
			<path fill="#5E4F47" d="M781.127,84.816c-0.012,0-0.025-0.002-0.037-0.008l-6.971-3.02c-0.049-0.021-0.07-0.076-0.049-0.123
				c0.02-0.049,0.074-0.07,0.123-0.049l6.971,3.021c0.049,0.02,0.07,0.074,0.049,0.123
				C781.197,84.797,781.164,84.816,781.127,84.816z"/>
			<path fill="#5E4F47" d="M780.133,85.43c-0.012,0-0.023-0.002-0.035-0.008l-5.748-2.49c-0.047-0.02-0.068-0.076-0.049-0.123
				c0.021-0.047,0.076-0.068,0.125-0.049l5.746,2.49c0.047,0.021,0.068,0.076,0.049,0.123
				C780.205,85.408,780.17,85.43,780.133,85.43z"/>
			<path fill="#5E4F47" d="M779.041,85.881c-0.012,0-0.025-0.004-0.037-0.008l-4.234-1.836c-0.047-0.021-0.07-0.074-0.049-0.123
				c0.021-0.047,0.076-0.068,0.123-0.049l4.234,1.836c0.047,0.021,0.07,0.074,0.049,0.123
				C779.111,85.859,779.078,85.881,779.041,85.881z"/>
			<path fill="#5E4F47" d="M778.146,86.027c-0.541,0-1.076-0.104-1.584-0.324c-1.205-0.523-2.08-1.607-2.459-3.053
				c-0.375-1.428-0.223-3.041,0.428-4.543c0.65-1.5,1.723-2.715,3.021-3.418c1.314-0.711,2.703-0.816,3.908-0.293
				c1.207,0.521,2.078,1.605,2.459,3.053c0.375,1.428,0.223,3.041-0.428,4.541C782.42,84.467,780.236,86.027,778.146,86.027z
				 M779.867,74.506c-0.691,0-1.408,0.189-2.107,0.57c-1.213,0.654-2.217,1.793-2.828,3.205c-0.611,1.414-0.756,2.924-0.406,4.258
				c0.346,1.312,1.131,2.295,2.211,2.764c0.453,0.195,0.932,0.289,1.416,0.289c1.918,0,3.938-1.461,4.939-3.773l0,0
				c0.611-1.414,0.756-2.924,0.406-4.258c-0.346-1.314-1.131-2.295-2.211-2.764C780.84,74.602,780.359,74.506,779.867,74.506z"/>
			<path fill="#5E4F47" d="M774.381,90.959c-0.027,0-0.059-0.006-0.086-0.02c-0.111-0.047-0.162-0.176-0.115-0.287
				c1.443-3.33,0.373-6.84,0.363-6.875c-0.037-0.115,0.027-0.238,0.143-0.273c0.115-0.037,0.238,0.027,0.273,0.143
				c0.047,0.148,1.133,3.695-0.377,7.18C774.547,90.91,774.467,90.959,774.381,90.959z"/>
			<path fill="#5E4F47" d="M774.381,90.959c-0.027,0-0.059-0.006-0.086-0.02c-0.111-0.047-0.162-0.176-0.115-0.287
				c1.576-3.637,4.848-5.127,4.986-5.189c0.109-0.047,0.238,0.002,0.289,0.111c0.049,0.111,0,0.24-0.111,0.289l0,0
				c-0.033,0.014-3.256,1.488-4.762,4.963C774.547,90.91,774.467,90.959,774.381,90.959z"/>
			<path fill="#A2A918" d="M771.361,98.918l-0.883-0.383c-0.09-0.039-0.131-0.143-0.092-0.232l3.32-7.662
				c0.039-0.09,0.143-0.131,0.232-0.092l0.883,0.383c0.09,0.037,0.131,0.143,0.094,0.232l-3.32,7.662
				C771.557,98.916,771.453,98.957,771.361,98.918z"/>
		</g>
	</g>
	<g>
		<g>
			<g>
				<path fill="#F9D02C" d="M654.811,130.094l-0.002,39.734l-0.518,0.283l-0.492,0.268l-3.432,1.873l-1.102,0.602l-0.699,0.383
					l-6.801,3.713c-0.703,0.383-1.559-0.123-1.559-0.924l0.002-37.334c0-0.387,0.209-0.74,0.547-0.926l11.434-6.24L654.811,130.094z
					"/>
				<polygon fill="#E8B423" points="669.412,138.066 669.41,177.801 666.582,176.256 665.6,175.719 663.627,174.643 
					656.111,170.539 655.006,169.934 654.809,169.828 654.811,130.094 657.018,131.299 				"/>
				<path fill="#F9D02C" d="M684.016,131.871l-0.002,37.334c0,0.385-0.209,0.74-0.547,0.924l-8.102,4.422l-0.639,0.352l-5.316,2.898
					l0.002-39.734l13.047-7.121C683.16,130.564,684.016,131.07,684.016,131.871z"/>
			</g>
			<path fill="#ED651F" d="M684.016,156.82v1.744c-1.145,1.896-3.115,3.018-5.023,4.098c-1.104,0.627-2.244,1.275-3.203,2.061
				c-0.84,0.689-1.887,1.809-2.131,3.229c-0.189,1.121,0.146,2.297,0.475,3.311c0.361,1.113,0.773,2.213,1.232,3.289l-0.639,0.352
				c-0.479-1.119-0.908-2.26-1.285-3.418c-0.354-1.094-0.715-2.371-0.498-3.656c0.221-1.297,1.047-2.566,2.385-3.666
				c1.008-0.826,2.176-1.488,3.305-2.131c2.002-1.137,3.895-2.209,4.91-4.098C683.734,157.576,683.887,157.205,684.016,156.82z"/>
			<path fill="#91912F" d="M640.209,157.117c0.68,0.521,1.578,0.793,2.516,1.074c0.682,0.205,1.385,0.418,2.027,0.738
				c0.338,0.168,0.756,0.422,0.973,0.863c0.16,0.332,0.168,0.688,0.154,1.023c-0.033,0.812-0.176,1.648-0.314,2.455
				c-0.311,1.811-0.604,3.52,0.266,4.932c0.35,0.564,0.855,1.018,1.395,1.498c0.645,0.574,1.311,1.166,1.701,1.982
				c0.184,0.383,0.293,0.773,0.34,1.17l-0.699,0.383c-0.014-0.428-0.105-0.844-0.295-1.238c-0.328-0.686-0.912-1.205-1.529-1.756
				c-0.553-0.492-1.125-1.002-1.529-1.66c-1.014-1.643-0.684-3.57-0.363-5.434c0.133-0.783,0.271-1.596,0.305-2.361
				c0.01-0.24,0.006-0.488-0.082-0.676c-0.096-0.193-0.295-0.357-0.646-0.533c-0.584-0.293-1.26-0.496-1.91-0.691
				c-0.795-0.238-1.607-0.482-2.307-0.896V157.117z"/>
			<path fill="#91912F" d="M655.006,169.934c-0.047-0.424-0.111-0.854-0.197-1.281c-0.256-1.295-0.721-2.574-1.584-3.627
				c-0.396-0.482-0.861-0.9-1.309-1.305c-0.666-0.596-1.293-1.16-1.688-1.891c-0.449-0.844-0.486-1.82-0.094-2.551
				c0.408-0.768,1.352-1.201,2.104-0.967c0.869,0.27,1.314,1.229,1.506,1.775c0.119,0.352,0.207,0.707,0.299,1.086
				c0.131,0.523,0.264,1.066,0.492,1.58c0.082,0.188,0.174,0.365,0.273,0.535c0.764,1.309,2.045,2.268,3.096,3.055
				c0.404,0.303,0.906,0.68,1.521,0.764c0.893,0.127,1.805-0.373,2.641-1.445c0.096-0.123,0.189-0.25,0.285-0.377
				c0.371-0.494,0.721-0.963,1.17-1.268c0.434,1.365,0.436,2.824,0.438,4.359c0.002,1.58,0.004,3.215,0.525,4.746
				c0.191,0.568,0.455,1.139,0.709,1.689c0.141,0.307,0.279,0.607,0.406,0.906l0.982,0.537c-0.195-0.588-0.465-1.174-0.73-1.748
				c-0.246-0.533-0.502-1.086-0.682-1.617c-0.48-1.418-0.484-2.992-0.484-4.516c-0.004-1.674-0.006-3.406-0.625-5.01l-0.137-0.35
				l-0.346,0.146c-0.799,0.342-1.312,1.025-1.807,1.688c-0.092,0.123-0.186,0.246-0.277,0.367c-0.465,0.596-1.186,1.281-1.969,1.172
				c-0.43-0.059-0.83-0.359-1.186-0.625c-1.18-0.885-2.52-1.887-3.141-3.301c-0.17-0.385-0.281-0.791-0.391-1.219
				c-0.02-0.08-0.041-0.162-0.061-0.246c-0.092-0.375-0.189-0.768-0.318-1.148c-0.234-0.676-0.803-1.867-1.977-2.23
				c-1.084-0.336-2.385,0.24-2.961,1.318c-0.502,0.941-0.467,2.18,0.098,3.234c0.451,0.844,1.158,1.477,1.84,2.09
				c0.43,0.385,0.873,0.785,1.234,1.225c1.035,1.262,1.441,2.838,1.627,4.625L655.006,169.934z"/>
			<path fill="#ED651F" d="M640.209,154.623c1.615-0.164,3.217-0.441,4.75-0.961c3.074-1.041,5.416-3.014,6.426-5.414
				c0.334-0.791,0.539-1.664,0.736-2.506c0.238-1.012,0.484-2.055,0.953-3.021c0.422-0.859,1.02-1.631,1.736-2.266
				c0.818-0.721,1.791-1.266,2.836-1.564c0.434-0.121,0.873-0.205,1.299-0.285c0.682-0.127,1.326-0.248,1.914-0.518
				c1.168-0.535,2.129-1.721,2.639-3.252l0.719,0.393c-0.594,1.678-1.688,2.98-3.021,3.594c-0.678,0.312-1.402,0.445-2.102,0.576
				c-0.426,0.08-0.83,0.156-1.227,0.27c-1.17,0.332-2.238,1.014-3.057,1.918c-0.404,0.445-0.746,0.947-1.01,1.488
				c-0.432,0.885-0.656,1.84-0.895,2.852c-0.205,0.877-0.418,1.781-0.777,2.637c-1.1,2.611-3.619,4.748-6.91,5.863
				c-1.633,0.553-3.318,0.84-5.01,1.008V154.623z"/>
			<path fill="#91912F" d="M684.016,140.453l-0.186-0.127c-0.439,0.639-1.084,1.041-1.916,1.191
				c-1.455,0.264-3.412-0.277-4.982-1.381l-0.086-0.062c-0.764-0.537-1.625-1.143-2.623-0.969c-1.322,0.232-1.996,1.764-1.797,3.049
				c0.148,0.953,0.633,1.775,1.102,2.572c0.111,0.189,0.227,0.389,0.334,0.582c0.891,1.6,1.453,3.408,1.627,5.23
				c0.172,1.814-0.121,3.256-0.871,4.283c-0.795,1.092-2.027,1.713-3.76,1.891c-0.473,0.049-0.961,0.062-1.445,0.053
				c-1.262-0.033-2.5-0.238-3.416-0.412c-0.436-0.084-0.877-0.188-1.068-0.477c-0.176-0.266-0.133-0.666-0.066-1.086l1.035-6.672
				c0.086-0.555,0.316-2.029-0.658-2.719c-0.42-0.295-0.893-0.361-1.369-0.193c-0.891,0.316-1.656,1.457-2.008,2.502
				c-1.23,0.055-2.514-0.26-3.645-0.898c-1.205-0.68-2.188-1.701-2.764-2.873l-0.525-1.066l-0.117,0.859l-0.043,0.318
				c-0.123,0.9-0.26,1.92-0.844,2.645c-0.301,0.375-0.803,0.641-1.273,0.678c-0.234,0.02-0.572-0.01-0.844-0.254
				c-0.398-0.359-0.488-0.996-0.574-1.613c-0.012-0.08-0.023-0.162-0.035-0.24c-0.164-1.086-0.508-2.129-1.021-3.096
				c-0.232-0.438-0.574-0.959-1.162-1.117c-0.496-0.137-0.967,0.049-1.277,0.227c-1.42,0.824-1.65,2.453-1.877,4.029
				c-0.111,0.773-0.223,1.572-0.479,2.252c-0.422,1.129-1.441,2.057-2.73,2.484c-0.818,0.271-1.67,0.316-2.441,0.145v0.748
				c0.85,0.16,1.768,0.096,2.668-0.203c1.52-0.504,2.68-1.568,3.184-2.92c0.283-0.754,0.402-1.592,0.518-2.402
				c0.211-1.469,0.408-2.857,1.523-3.504c0.152-0.09,0.453-0.229,0.725-0.156c0.318,0.086,0.545,0.449,0.709,0.758
				c0.475,0.895,0.795,1.859,0.943,2.861c0.014,0.08,0.023,0.158,0.033,0.238c0.102,0.709,0.215,1.512,0.807,2.047
				c0.363,0.326,0.857,0.484,1.391,0.441c0.67-0.053,1.354-0.418,1.781-0.949c0.121-0.152,0.23-0.314,0.32-0.482
				c0.264-0.475,0.416-1,0.518-1.51c1.504,2.178,4.18,3.49,6.836,3.262l0.252-0.021l0.068-0.244c0.254-0.916,0.934-2.012,1.631-2.26
				c0.254-0.092,0.477-0.059,0.705,0.104c0.42,0.297,0.529,0.916,0.359,2.014l-1.035,6.67c-0.086,0.547-0.143,1.119,0.178,1.602
				c0.377,0.566,1.105,0.705,1.537,0.787c1.08,0.205,2.316,0.391,3.553,0.418c0.104,0.004,0.207,0.004,0.311,0.004
				c2.127,0.002,4.217-0.504,5.482-2.24c0.857-1.174,1.193-2.779,1.004-4.777c-0.182-1.92-0.773-3.828-1.713-5.514
				c-0.111-0.203-0.23-0.404-0.344-0.6c-0.453-0.771-0.883-1.5-1.008-2.314c-0.146-0.926,0.312-2.066,1.201-2.221
				c0.703-0.125,1.402,0.367,2.082,0.846l0.086,0.062c1.721,1.209,3.893,1.797,5.531,1.502c0.797-0.145,1.459-0.477,1.971-0.996
				V140.453z"/>
		</g>
		<g>
			<path fill="#614D44" d="M689.461,152.572c-0.18,0-0.324-0.145-0.324-0.324v-3.426c0-0.178,0.145-0.322,0.324-0.322
				c0.178,0,0.322,0.145,0.322,0.322v3.426C689.783,152.428,689.639,152.572,689.461,152.572z"/>
			<circle fill="#A2A918" cx="689.458" cy="165.074" r="13.073"/>
			<path fill="#91912F" d="M689.461,152l-0.002,26.148c7.219,0,13.072-5.854,13.072-13.074C702.533,157.854,696.68,152,689.461,152z
				"/>
			<g>
				<circle fill="#FFFFFF" cx="689.458" cy="165.074" r="9.849"/>
				<path fill="#5E4F47" d="M689.459,175.324c-5.654,0-10.252-4.598-10.252-10.25c0.002-5.652,4.6-10.25,10.254-10.25
					c5.652,0,10.25,4.598,10.248,10.25C699.709,170.727,695.111,175.324,689.459,175.324z M689.461,155.629
					c-5.209,0-9.443,4.238-9.445,9.445c0,5.209,4.234,9.445,9.443,9.445c5.207,0,9.443-4.236,9.443-9.445
					C698.904,159.867,694.668,155.629,689.461,155.629z"/>
			</g>
			<g>
				<path fill="#FFFFFF" d="M689.461,157.857v-2.631V157.857z"/>
				<path fill="#5E4F47" d="M689.461,158.262c-0.223,0-0.404-0.18-0.404-0.404v-2.631c0-0.223,0.182-0.402,0.404-0.402
					c0.221,0,0.402,0.18,0.402,0.402v2.631C689.863,158.082,689.682,158.262,689.461,158.262z"/>
			</g>
			<g>
				<path fill="#FFFFFF" d="M689.459,174.922v-2.631V174.922z"/>
				<path fill="#5E4F47" d="M689.459,175.324c-0.223,0-0.404-0.18-0.404-0.402v-2.631c0-0.223,0.182-0.402,0.404-0.402
					c0.221,0,0.402,0.18,0.402,0.402v2.631C689.861,175.145,689.68,175.324,689.459,175.324z"/>
			</g>
			<g>
				<path fill="#FFFFFF" d="M696.674,165.074h2.633H696.674z"/>
				<path fill="#5E4F47" d="M699.307,165.479h-2.633c-0.223,0-0.402-0.182-0.402-0.404s0.18-0.404,0.402-0.404h2.633
					c0.221,0,0.402,0.182,0.402,0.404S699.527,165.479,699.307,165.479z"/>
			</g>
			<g>
				<path fill="#FFFFFF" d="M679.609,165.074h2.633H679.609z"/>
				<path fill="#5E4F47" d="M682.242,165.479h-2.633c-0.223,0-0.402-0.182-0.402-0.404s0.18-0.404,0.402-0.404h2.633
					c0.223,0,0.402,0.182,0.402,0.404S682.465,165.479,682.242,165.479z"/>
			</g>
			<polygon fill="#6CDDEF" points="687.955,163.57 684.174,170.359 690.963,166.578 			"/>
			<path fill="#614D44" d="M689.461,150.367c-1.391,0-2.523-1.131-2.523-2.523c0-1.391,1.133-2.521,2.523-2.521
				s2.523,1.131,2.523,2.521C691.984,149.236,690.852,150.367,689.461,150.367z M689.461,145.967c-1.037,0-1.879,0.842-1.879,1.877
				s0.842,1.877,1.879,1.877c1.035,0,1.877-0.842,1.877-1.877S690.496,145.967,689.461,145.967z"/>
			<polygon fill="#ED651F" points="687.955,163.57 694.746,159.789 690.963,166.578 			"/>
		</g>
	</g>
	<circle fill="#F3F8F4" cx="948.162" cy="114.45" r="44.893"/>
	<g>
		<polygon fill="#91912F" points="929.4,115.422 939.625,105.117 940.154,108.131 937.24,114.041 		"/>
		<polygon fill="#91912F" points="965.197,109.123 952.066,102.932 952.598,105.943 957.354,110.502 		"/>
		<path fill="#A2A918" d="M964.76,109.199l-14.838,2.611l-1.064,0.186l-3.002,0.527l-0.49,0.088l-15.41,2.713
			c-0.734,0.129-1.223,0.828-1.094,1.561l1.111,6.33c0.318,1.812,2.047,3.021,3.859,2.705l10.666-1.877
			c1.812-0.32,3.021-2.049,2.705-3.861l-0.703-3.996l3-0.527l0.703,3.998c0.318,1.812,2.045,3.021,3.859,2.703l10.662-1.877
			c1.814-0.32,3.025-2.047,2.709-3.859l-1.115-6.33C966.189,109.559,965.49,109.07,964.76,109.199z"/>
		<path fill="#74F6FB" d="M933.443,123.693c-0.586,0.105-1.145-0.287-1.248-0.871l-0.955-5.434l12.785-2.25l0.953,5.434
			c0.102,0.586-0.289,1.143-0.873,1.246L933.443,123.693z"/>
		<path fill="#6CDDEF" d="M953.67,120.137c-0.584,0.102-1.143-0.289-1.244-0.873l-0.955-5.434l12.781-2.25l0.957,5.436
			c0.102,0.582-0.289,1.141-0.873,1.244L953.67,120.137z"/>
	</g>
	<g>
		<path fill="#614D44" d="M948.955,138.295l-2.244-0.002c-10.73,0-19.465-8.732-19.465-19.465c0-0.217,0.176-0.391,0.391-0.391
			l40.395,0.002c0.102,0,0.201,0.041,0.273,0.113c0.074,0.072,0.115,0.172,0.115,0.275
			C968.42,129.562,959.688,138.295,948.955,138.295z M928.031,119.219c0.209,10.123,8.508,18.295,18.68,18.295h2.244
			c10.174,0,18.473-8.17,18.682-18.295H928.031z"/>
		<ellipse fill="#493127" cx="948.162" cy="118.562" rx="31.842" ry="9.139"/>
		<path fill="#E8B423" d="M968.029,109.691v6.986c0,2.217-9.043,4.014-20.195,4.012c-11.154,0-20.197-1.795-20.197-4.012v-6.988
			c0-0.213,0.004-0.424,0.012-0.635c0.336-10.859,9.242-19.562,20.188-19.562c10.941,0.002,19.85,8.703,20.184,19.562
			C968.025,109.266,968.029,109.479,968.029,109.691z"/>
		<circle fill="#ED651F" cx="948.045" cy="137.897" r="1.51"/>
		<path fill="#F9D02C" d="M968.029,109.691v3.111c0,2.217-9.041,4.012-20.195,4.012c-11.152,0-20.197-1.797-20.197-4.012v-3.113
			c0-0.213,0.004-0.424,0.012-0.635c0.336-10.859,9.242-19.562,20.188-19.562c10.941,0.002,19.85,8.703,20.184,19.562
			C968.025,109.266,968.029,109.479,968.029,109.691z"/>
		<path fill="#6B4E32" d="M968.02,109.055c-0.334,2.158-9.244,3.887-20.186,3.885c-10.941,0-19.85-1.727-20.188-3.885
			c0.338-10.859,9.246-19.562,20.189-19.562C958.777,89.494,967.686,98.195,968.02,109.055z"/>
		<circle fill="#493127" cx="939.732" cy="96.23" r="0.695"/>
		<circle fill="#493127" cx="947.354" cy="96.23" r="0.693"/>
		<circle fill="#493127" cx="947.354" cy="91.947" r="0.693"/>
		<circle fill="#493127" cx="954.972" cy="96.23" r="0.694"/>
		<circle fill="#493127" cx="935.857" cy="101.217" r="0.693"/>
		<circle fill="#493127" cx="943.478" cy="101.217" r="0.694"/>
		<path fill="#493127" d="M951.791,101.219c0,0.381-0.309,0.691-0.691,0.691c-0.385,0-0.695-0.311-0.695-0.691
			c0-0.383,0.311-0.695,0.695-0.695C951.482,100.523,951.791,100.836,951.791,101.219z"/>
		<path fill="#493127" d="M959.412,101.219c0,0.381-0.311,0.691-0.691,0.691c-0.383,0-0.697-0.311-0.697-0.691
			c0-0.383,0.314-0.695,0.697-0.695C959.102,100.523,959.412,100.836,959.412,101.219z"/>
		<circle fill="#493127" cx="931.984" cy="106.203" r="0.693"/>
		<circle fill="#493127" cx="939.604" cy="106.203" r="0.692"/>
		<circle fill="#493127" cx="947.225" cy="106.203" r="0.693"/>
		<circle fill="#493127" cx="954.972" cy="106.205" r="0.694"/>
		<circle fill="#493127" cx="962.593" cy="106.205" r="0.694"/>
	</g>
</g>
</svg>
