<?xml version="1.0" encoding="utf-8"?>
<!-- Generator: Adobe Illustrator 16.0.0, SVG Export Plug-In . SVG Version: 6.00 Build 0)  -->
<!DOCTYPE svg PUBLIC "-//W3C//DTD SVG 1.1//EN" "http://www.w3.org/Graphics/SVG/1.1/DTD/svg11.dtd">
<svg version="1.1" id="圖層_1" xmlns="http://www.w3.org/2000/svg" xmlns:xlink="http://www.w3.org/1999/xlink" x="0px" y="0px"
	 width="1016px" height="269px" viewBox="0 0 1016 269" enable-background="new 0 0 1016 269" xml:space="preserve">
<g>
	<g>
		<path fill="#F7CC5E" d="M139.49,142.928c0,0-46.885-56.376-59.385-88.775c-12.507,32.398-59.397,88.77-59.397,88.77
			L139.49,142.928z"/>
		<path fill="#717071" d="M87.812,142.926c0,0-6.086-36.76-7.708-57.885c-1.624,21.125-7.715,57.884-7.715,57.884L87.812,142.926z"
			/>
		<path fill="#F1A900" d="M80.105,54.152c0,0-0.534,48.371,22.333,85.632l-14.626,3.142C87.812,142.926,76.379,79.97,80.105,54.152z
			"/>
		<path fill="#F1A900" d="M80.292,54.152c0,0,0.528,48.371-22.345,85.63l14.626,3.143C72.573,142.925,84.011,79.97,80.292,54.152z"
			/>
		<path fill="#F1A900" d="M89.279,69.544c0,0-7.244-10.236-9.174-16.123c-1.935,5.886-9.177,16.122-9.177,16.122L89.279,69.544z"/>
	</g>
</g>
<g>
	<g>
		<g>
			<path fill="#AABD00" d="M120.2,174.553c0-0.056,0-0.109,0-0.161c0.002-45.634,8.655-82.621,19.323-82.621
				c10.67,0,19.317,36.988,19.315,82.622c0,0.052,0,0.105,0,0.161L120.2,174.553z"/>
			<polygon fill="#C3C000" points="153.388,156.917 141.83,170.514 141.934,174.554 138.102,174.554 138.595,157.709 
				126.752,143.778 138.723,153.386 139.615,122.942 134.134,116.491 139.674,120.942 140.134,105.32 140.893,134.468 
				147.453,129.204 140.953,136.847 141.718,166.287 			"/>
		</g>
		<g>
			<path fill="#7AB80A" d="M103.891,174.552c0.051-34.362,6.581-62.155,14.629-62.155c8.046,0,14.575,27.795,14.623,62.157
				L103.891,174.552z"/>
			<polygon fill="#9CC730" points="129.02,161.722 120.267,172.019 120.328,174.553 117.459,174.553 117.816,162.323 
				108.852,151.774 117.912,159.053 118.588,136.002 114.437,131.117 118.633,134.488 118.98,122.657 119.555,144.727 
				124.524,140.741 119.603,146.528 120.18,168.815 			"/>
		</g>
	</g>
	<path fill="#839F00" d="M208.136,167.582c-40.224-0.002-77.946,2.33-110.484,6.411c22.589,2.378,65.355,3.987,114.399,3.989
		c46.002,0.002,86.477-1.409,109.963-3.547C288.716,170.085,249.769,167.583,208.136,167.582z"/>
</g>
<g>
	<g>
		<path fill="#F1A900" d="M367.623,142.456c0,0,39.251-47.185,49.716-74.305c10.468,27.121,49.714,74.309,49.714,74.309
			L367.623,142.456z"/>
		<path fill="#717071" d="M410.881,142.458c0,0,5.099-30.77,6.457-48.453c1.36,17.684,6.454,48.453,6.454,48.453L410.881,142.458z"
			/>
		<path fill="#F7CC5E" d="M417.338,68.151c0,0,0.444,40.49-18.702,71.678l12.245,2.628
			C410.881,142.458,420.457,89.765,417.338,68.151z"/>
		<path fill="#F7CC5E" d="M417.184,68.151c0,0-0.447,40.49,18.696,71.68l-12.243,2.627
			C423.637,142.458,414.068,89.765,417.184,68.151z"/>
		<path fill="#F7CC5E" d="M409.659,81.035c0,0,6.065-8.57,7.679-13.495c1.618,4.925,7.68,13.496,7.68,13.496L409.659,81.035z"/>
	</g>
</g>
<g>
	<g>
		<path fill="#F1A900" d="M903.623,142.48c0,0,39.251-47.185,49.716-74.304c10.468,27.121,49.714,74.309,49.714,74.309
			L903.623,142.48z"/>
		<path fill="#717071" d="M946.881,142.482c0,0,5.099-30.769,6.457-48.452c1.36,17.683,6.453,48.453,6.453,48.453L946.881,142.482z"
			/>
		<path fill="#F7CC5E" d="M953.339,68.176c0,0,0.443,40.49-18.702,71.678l12.244,2.628
			C946.881,142.482,956.457,89.79,953.339,68.176z"/>
		<path fill="#F7CC5E" d="M953.185,68.176c0,0-0.447,40.49,18.696,71.679l-12.244,2.627
			C959.637,142.483,950.068,89.789,953.185,68.176z"/>
		<path fill="#F7CC5E" d="M945.658,81.059c0,0,6.065-8.57,7.681-13.495c1.617,4.925,7.679,13.495,7.679,13.495L945.658,81.059z"/>
	</g>
</g>
<g>
	<path fill="#F5CA5F" d="M239.369,200.164c6.6-15.534,29.929-36.95,57.662-36.906c27.611,0.049,50.799,21.374,57.479,36.911
		L239.369,200.164z"/>
	<path fill="#EFA700" d="M239.377,200.164c6.555-15.423,29.593-36.651,57.072-36.897l-0.001,36.9L239.377,200.164z"/>
</g>
<g>
	<path fill="#96C011" d="M319.907,200.167c3.986-9.172,19.419-22.237,37.851-22.236c18.431,0.001,33.86,13.067,37.847,22.239
		L319.907,200.167z"/>
	<path opacity="0.53" fill="#82A600" d="M357.36,200.169l-37.453-0.002c3.956-9.104,19.198-22.039,37.454-22.228L357.36,200.169z"/>
</g>
<g>
	<path fill="#96C011" d="M82.906,233.156c3.985-9.172,19.419-22.237,37.851-22.236c18.431,0,33.859,13.067,37.847,22.239
		L82.906,233.156z"/>
	<path opacity="0.53" fill="#82A600" d="M120.358,233.158l-37.453-0.002c3.956-9.104,19.198-22.039,37.454-22.228L120.358,233.158z"
		/>
</g>
<g>
	<path fill="#96C011" d="M281.239,208.086c3.028-7.359,14.743-17.844,28.737-17.843c13.992,0.001,25.706,10.487,28.734,17.846
		L281.239,208.086z"/>
	<path opacity="0.53" fill="#82A600" d="M309.674,208.087l-28.435-0.001c3.007-7.306,14.577-17.686,28.436-17.837L309.674,208.087z"
		/>
</g>
<g>
	<path fill="#96C011" d="M848.016,226.655c4.119-9.479,20.067-22.979,39.115-22.979c19.047,0.001,34.99,13.503,39.11,22.982
		L848.016,226.655z"/>
	<path opacity="0.53" fill="#82A600" d="M886.72,226.657l-38.704-0.001c4.088-9.409,19.839-22.775,38.705-22.971L886.72,226.657z"/>
</g>
<g>
	<path fill="#96C011" d="M808.056,234.838c3.129-7.604,15.235-18.439,29.697-18.438c14.459,0,26.563,10.836,29.694,18.441
		L808.056,234.838z"/>
	<path opacity="0.53" fill="#82A600" d="M837.44,234.839l-29.385-0.001c3.107-7.55,15.064-18.277,29.386-18.433L837.44,234.839z"/>
</g>
<g>
	<g>
		<g>
			<g>
				<g>
					<g>
						<path fill="#4A8028" d="M578.488,158.82c0-0.051,0-0.102,0-0.149c0.002-42.656,8.086-77.231,18.061-77.231
							c9.972,0,18.057,34.576,18.055,77.232c0,0.048,0,0.099,0,0.15L578.488,158.82z"/>
						<polygon fill="#C3C000" points="609.507,142.335 598.703,155.045 598.801,158.821 595.218,158.821 595.678,143.076 
							584.608,130.054 595.801,139.036 596.635,110.578 591.507,104.547 596.689,108.708 597.115,94.105 597.827,121.352 
							603.958,116.431 597.885,123.575 598.601,151.094 						"/>
					</g>
					<g>
						<path fill="#AABD00" d="M540.353,158.819c0-0.051,0-0.102,0-0.15c0.002-42.656,8.089-77.231,18.058-77.23
							c9.978,0,18.06,34.576,18.058,77.232c0,0.048,0,0.099,0,0.15L540.353,158.819z"/>
						<polygon fill="#C3C000" points="571.374,142.334 560.57,155.043 560.665,158.82 557.083,158.819 557.546,143.074 
							546.476,130.053 557.664,139.034 558.498,110.576 553.373,104.545 558.554,108.707 558.981,94.104 559.691,121.35 
							565.822,116.429 559.745,123.573 560.464,151.093 						"/>
					</g>
					<g>
						<path fill="#7AB80A" d="M606.874,158.822c0.049-32.12,6.153-58.1,13.675-58.1c7.523,0,13.626,25.981,13.67,58.101
							L606.874,158.822z"/>
						<polygon fill="#9CC730" points="630.362,146.829 622.182,156.454 622.242,158.823 619.559,158.822 619.892,147.391 
							611.513,137.531 619.981,144.333 620.613,122.787 616.736,118.221 620.654,121.372 620.981,110.312 621.52,130.943 
							626.16,127.217 621.562,132.626 622.103,153.459 						"/>
					</g>
					<g>
						<path fill="#7AB80A" d="M455.65,158.815c0.045-32.12,6.153-58.1,13.674-58.1c7.521,0,13.624,25.981,13.669,58.101
							L455.65,158.815z"/>
						<polygon fill="#9CC730" points="479.136,146.822 470.954,156.446 471.015,158.815 468.331,158.815 468.667,147.384 
							460.285,137.523 468.756,144.326 469.388,122.78 465.507,118.214 469.432,121.365 469.754,110.306 470.291,130.936 
							474.935,127.21 470.335,132.619 470.875,153.452 						"/>
					</g>
					<g>
						<path fill="#4A8028" d="M480.516,158.816c0.1-43.743,8.423-79.079,18.677-79.078c10.251,0,18.572,35.337,18.668,79.08
							L480.516,158.816z"/>
						<polygon fill="#9CC730" points="512.596,142.711 501.419,155.861 501.499,158.817 497.844,158.817 498.291,143.48 
							486.848,130.012 498.416,139.303 499.281,109.873 493.979,103.638 499.338,107.937 499.78,92.836 500.517,121.016 
							506.856,115.924 500.573,123.313 501.314,151.77 						"/>
					</g>
					<g>
						<path fill="#5FA12C" d="M511.762,158.817c0.048-32.12,6.152-58.1,13.674-58.099c7.523,0,13.625,25.981,13.671,58.101
							L511.762,158.817z"/>
						<polygon fill="#9CC730" points="535.25,146.824 527.067,156.449 527.13,158.818 524.444,158.818 524.779,147.387 
							516.397,137.526 524.869,144.329 525.501,122.783 521.62,118.216 525.546,121.368 525.866,110.309 526.404,130.938 
							531.045,127.213 526.447,132.622 526.992,153.455 						"/>
					</g>
				</g>
			</g>
			<g>
				<g>
					<path fill="#AABD00" d="M880.229,158.834c0-0.051,0-0.102,0-0.15c0.002-42.656,8.09-77.231,18.062-77.23
						c9.975,0,18.057,34.576,18.055,77.232c0,0.048,0,0.099,0,0.15L880.229,158.834z"/>
					<polygon fill="#C3C000" points="911.25,142.35 900.448,155.059 900.544,158.835 896.962,158.835 897.424,143.089 
						886.353,130.068 897.541,139.049 898.377,110.592 893.252,104.561 898.431,108.722 898.861,94.119 899.57,121.366 
						905.702,116.444 899.626,123.589 900.342,151.108 					"/>
				</g>
				<g>
					<path fill="#7AB80A" d="M864.983,158.833c0.047-32.12,6.151-58.1,13.675-58.099c7.52,0,13.623,25.981,13.668,58.101
						L864.983,158.833z"/>
					<polygon fill="#9CC730" points="888.473,146.841 880.29,156.465 880.348,158.834 877.666,158.834 877.999,147.403 
						869.619,137.542 878.089,144.345 878.721,122.799 874.842,118.232 878.764,121.384 879.087,110.325 879.624,130.955 
						884.27,127.229 879.67,132.638 880.209,153.471 					"/>
				</g>
				<g>
					<path fill="#7AB80A" d="M764.483,158.829c0.048-32.12,6.149-58.1,13.675-58.1c7.52,0,13.624,25.981,13.667,58.101
						L764.483,158.829z"/>
					<polygon fill="#9CC730" points="787.971,146.836 779.789,156.46 779.851,158.83 777.165,158.83 777.501,147.398 
						769.119,137.538 777.589,144.34 778.223,122.794 774.342,118.228 778.266,121.379 778.586,110.32 779.124,130.95 
						783.771,127.225 779.169,132.633 779.71,153.466 					"/>
				</g>
				<g>
					<path fill="#4A8028" d="M789.348,158.83c0.103-43.743,8.426-79.079,18.676-79.078c10.256,0,18.573,35.337,18.668,79.08
						L789.348,158.83z"/>
					<polygon fill="#9CC730" points="821.43,142.725 810.252,155.875 810.329,158.831 806.676,158.831 807.127,143.494 
						795.679,130.026 807.25,139.317 808.114,109.887 802.814,103.652 808.171,107.951 808.612,92.85 809.348,121.03 
						815.689,115.938 809.402,123.327 810.147,151.784 					"/>
				</g>
				<g>
					<path fill="#5FA12C" d="M820.596,158.832c0.05-32.12,6.152-58.1,13.674-58.099c7.521,0,13.621,25.981,13.669,58.101
						L820.596,158.832z"/>
					<polygon fill="#9CC730" points="844.082,146.838 835.899,156.463 835.964,158.833 833.275,158.832 833.612,147.401 
						825.229,137.541 833.702,144.343 834.333,122.797 830.453,118.23 834.375,121.382 834.701,110.323 835.237,130.953 
						839.88,127.227 835.28,132.636 835.822,153.469 					"/>
				</g>
			</g>
		</g>
		<g>
			<g>
				<g>
					<path fill="#E66324" d="M806.03,154.227c0,0-79.253-89.837-100.381-141.465c-21.14,51.626-100.398,141.456-100.398,141.456
						L806.03,154.227z"/>
					<path fill="#F5CA5F" d="M779.661,154.226c0,0-58.434-89.836-74.012-141.464c-15.585,51.626-74.027,141.457-74.027,141.457
						L779.661,154.226z"/>
					<path fill="#896414" d="M718.68,154.223c0,0-10.289-58.579-13.033-92.243c-2.747,33.664-13.039,92.242-13.039,92.242
						L718.68,154.223z"/>
					<path fill="#EFA700" d="M705.649,12.762c0,0-0.903,77.08,37.754,136.458l-24.724,5.004
						C718.68,154.223,699.353,53.905,705.649,12.762z"/>
					<path fill="#EFA700" d="M705.964,12.762c0,0,0.894,77.081-37.768,136.454l24.724,5.006
						C692.92,154.222,712.254,53.906,705.964,12.762z"/>
					<path fill="#EEEA47" d="M721.156,37.284c0,0-12.246-16.312-15.507-25.688c-3.265,9.376-15.511,25.687-15.511,25.687
						L721.156,37.284z"/>
				</g>
				<path fill="none" stroke="#F0E144" stroke-linecap="round" stroke-linejoin="round" stroke-miterlimit="10" d="M705.649,11.595
					c0,0,88.467,124.425,194.584,149.019"/>
				<path fill="none" stroke="#F0E144" stroke-linecap="round" stroke-linejoin="round" stroke-miterlimit="10" d="M706.51,11.596
					c0,0-85.835,124.155-191.955,148.74"/>
			</g>
		</g>
	</g>
	<path fill="#839F00" d="M682.513,152.304c-82.593-0.003-160.049,2.175-226.861,5.988c46.384,2.224,134.196,3.73,234.901,3.734
		c94.458,0.004,177.568-1.312,225.792-3.31C847.973,154.65,767.999,152.308,682.513,152.304z"/>
</g>
<g>
	<path opacity="0.23" fill="#4A8028" d="M703.479,208.28c0,1.549-37.146,2.807-82.977,2.804
		c-45.825-0.002-82.975-1.262-82.975-2.812c0.001-1.552,37.15-2.807,82.976-2.805C666.334,205.471,703.48,206.729,703.479,208.28z"
		/>
	<g>
		<g>
			<g>
				<path fill="#7E5C2D" d="M632.7,199.524c-4.562,0-8.257,3.696-8.257,8.258l8.256,0h8.256l42.26,0.002v-8.259L632.7,199.524z"/>
				<path fill="#E4D49D" d="M674.311,207.785c0.001-4.562,3.697-8.259,8.254-8.259c4.562,0,8.257,3.697,8.256,8.259L674.311,207.785
					z"/>
				<path fill="#AB6927" d="M672.846,202.5l-26.997-0.001c-0.355,0-0.641-0.29-0.641-0.639l0,0c0-0.354,0.285-0.638,0.641-0.638
					l26.997,0.001c0.353,0,0.639,0.285,0.639,0.638l0,0C673.484,202.21,673.198,202.5,672.846,202.5z"/>
				<path fill="#AB6927" d="M657.368,205.47l-26.997-0.001c-0.353,0-0.64-0.288-0.64-0.64l0,0c0-0.353,0.287-0.639,0.64-0.639
					l26.997,0.001c0.354,0,0.639,0.286,0.639,0.639l0,0C658.007,205.183,657.723,205.47,657.368,205.47z"/>
			</g>
			<g>
				<path fill="#7E5C2D" d="M612.116,199.523c-4.561,0-8.257,3.696-8.257,8.258l8.256,0h8.256l42.264,0.002v-8.259L612.116,199.523z
					"/>
				<path fill="#E4D49D" d="M653.727,207.784c0.001-4.562,3.697-8.259,8.259-8.259c4.562,0,8.256,3.697,8.255,8.259L653.727,207.784
					z"/>
				<path fill="#AB6927" d="M652.267,202.499l-27.004-0.001c-0.352,0-0.637-0.29-0.637-0.639l0,0c0-0.354,0.285-0.638,0.637-0.638
					l27.004,0.001c0.351,0,0.637,0.285,0.637,0.638l0,0C652.903,202.209,652.617,202.499,652.267,202.499z"/>
				<path fill="#AB6927" d="M636.789,205.469l-27-0.001c-0.354,0-0.64-0.288-0.64-0.64l0,0c0-0.353,0.286-0.639,0.64-0.639l27,0.001
					c0.354,0,0.639,0.286,0.639,0.639l0,0C637.428,205.182,637.144,205.469,636.789,205.469z"/>
			</g>
		</g>
		<g>
			<g>
				<path fill="#7E5C2D" d="M608.502,199.523c4.561,0,8.256,3.697,8.256,8.259l-8.256,0h-8.254l-42.264-0.002l0.001-8.259
					L608.502,199.523z"/>
				<path fill="#E4D49D" d="M566.889,207.78c0.001-4.562-3.694-8.259-8.256-8.259c-4.561,0-8.257,3.696-8.258,8.258L566.889,207.78z
					"/>
				<path fill="#AB6927" d="M568.354,202.495l27,0.001c0.351,0,0.641-0.29,0.641-0.639l0,0c0-0.354-0.29-0.638-0.641-0.638
					l-27-0.001c-0.353,0-0.641,0.284-0.641,0.638l0,0C567.714,202.205,568.002,202.495,568.354,202.495z"/>
				<path fill="#AB6927" d="M583.831,205.467l26.999,0.001c0.355,0,0.64-0.288,0.64-0.64l0,0c0-0.353-0.284-0.639-0.64-0.639
					l-26.999-0.001c-0.352,0-0.641,0.286-0.641,0.639l0,0C583.19,205.179,583.479,205.467,583.831,205.467z"/>
			</g>
			<g>
				<path fill="#7E5C2D" d="M629.085,199.524c4.558,0,8.258,3.697,8.257,8.259l-8.258,0l-8.258,0l-42.263-0.001l0.001-8.259
					L629.085,199.524z"/>
				<path fill="#E4D49D" d="M587.472,207.781c0.001-4.562-3.697-8.259-8.257-8.259c-4.561,0-8.257,3.696-8.258,8.258
					L587.472,207.781z"/>
				<path fill="#AB6927" d="M588.935,202.496l27,0.001c0.354,0,0.643-0.29,0.643-0.639l0,0c0-0.354-0.288-0.638-0.643-0.638
					l-27-0.001c-0.354,0-0.638,0.284-0.638,0.638l0,0C588.297,202.206,588.581,202.496,588.935,202.496z"/>
				<path fill="#AB6927" d="M604.411,205.468l26.998,0.001c0.355,0,0.64-0.287,0.64-0.64l0,0c0-0.353-0.284-0.639-0.64-0.639
					l-26.998-0.001c-0.354,0-0.64,0.286-0.64,0.639l0,0C603.771,205.18,604.058,205.468,604.411,205.468z"/>
			</g>
		</g>
	</g>
	<path fill="#F0E200" d="M619.204,205.305c12.255,0,22.612-2.438,26.004-5.78l-18.327-0.001h-2.91l-13.667,0l-2.907,0l-14.192,0
		C596.596,202.865,606.951,205.304,619.204,205.305z"/>
	<g>
		<g>
			<path fill="#F0E200" d="M618.666,199.739c0,0-19.479,3.661-22.197-14.691c-2.721-18.345,19.045-20.6,15.223-37.824
				c0,0,4.917,4.797,3.514,11.293c-1.408,6.495,4.947,7.058,7.276,2.54c2.327-4.52-1.56-14.399-5.543-20.047
				c-3.988-5.65-3.456-10.731-3.456-10.731s2.903,7.855,7.257,9.152c4.354,1.297,15.863,11.474,14.908,20.785
				c-0.957,9.31,1.396,13.547,4.877,12.701c3.483-0.846,3.129-12.141,3.129-12.141s5.743,11.295,3.898,19.482
				C645.702,188.449,639.632,203.692,618.666,199.739z"/>
			<path fill="#E98700" d="M618.025,198.696c0,0-9.409-0.244-10.894-10.153c-1.487-9.907,6.438-11.394,6.936-18.083
				c0,0,2.475,3.47,1.485,7.682c-0.989,4.208,0.989,4.457,3.963,4.457c2.971,0,7.432-6.935,5.943-13.623
				c0,0,7.185,6.194,6.439,15.358C631.155,193.499,625.209,199.196,618.025,198.696z"/>
		</g>
		<circle fill="#F0E200" cx="637.599" cy="147.344" r="2.148"/>
		<path fill="#F0E200" d="M594.663,169.468c0,1.188-0.962,2.15-2.146,2.15c-1.186,0-2.147-0.962-2.147-2.15
			c0-1.182,0.962-2.146,2.147-2.146C593.701,167.322,594.663,168.287,594.663,169.468z"/>
		<circle fill="#F0E200" cx="650.312" cy="158.41" r="1.32"/>
		<path fill="#F0E200" d="M621.578,131.988c-0.727,0-1.319-0.594-1.319-1.323c0-0.728,0.593-1.318,1.319-1.318
			c0.733,0,1.324,0.59,1.324,1.318C622.902,131.394,622.312,131.988,621.578,131.988z"/>
		<path fill="#F0E200" d="M632.147,126.869c0.095-0.366,0.461-0.587,0.829-0.496c0.365,0.09,0.583,0.461,0.493,0.824
			c-0.092,0.367-0.459,0.591-0.824,0.5C632.282,127.603,632.058,127.234,632.147,126.869z"/>
		<circle fill="#F0E200" cx="600.112" cy="158.241" r="0.681"/>
	</g>
</g>
<g>
	<g>
		<path fill="#F1A900" d="M155.622,169.446c0,0,55.207-66.366,69.926-104.511c14.723,38.146,69.923,104.517,69.923,104.517
			L155.622,169.446z"/>
		<path fill="#717071" d="M216.466,169.449c0,0,7.17-43.277,9.081-68.149c1.914,24.873,9.078,68.15,9.078,68.15L216.466,169.449z"/>
		<path fill="#F7CC5E" d="M225.548,64.936c0,0,0.625,56.949-26.305,100.816l17.223,3.697
			C216.466,169.449,229.935,95.335,225.548,64.936z"/>
		<path fill="#F7CC5E" d="M225.331,64.936c0,0-0.628,56.949,26.296,100.819l-17.219,3.695
			C234.408,169.45,220.948,95.335,225.331,64.936z"/>
		<path fill="#F7CC5E" d="M214.747,83.055c0,0,8.53-12.053,10.801-18.98c2.275,6.927,10.802,18.981,10.802,18.981L214.747,83.055z"
			/>
	</g>
</g>
</svg>
