<?xml version="1.0" encoding="utf-8"?>
<!-- Generator: Adobe Illustrator 16.0.0, SVG Export Plug-In . SVG Version: 6.00 Build 0)  -->
<!DOCTYPE svg PUBLIC "-//W3C//DTD SVG 1.1//EN" "http://www.w3.org/Graphics/SVG/1.1/DTD/svg11.dtd">
<svg version="1.1" id="圖層_1" xmlns="http://www.w3.org/2000/svg" xmlns:xlink="http://www.w3.org/1999/xlink" x="0px" y="0px"
	 width="1016px" height="269px" viewBox="0 0 1016 269" enable-background="new 0 0 1016 269" xml:space="preserve">
<g>
	<g>
		<path fill="#F7CC5E" d="M113.565,227.928c0,0-40.6-48.818-51.424-76.874c-10.83,28.056-51.434,76.869-51.434,76.869
			L113.565,227.928z"/>
		<path fill="#717071" d="M68.815,227.926c0,0-5.27-31.831-6.674-50.124c-1.406,18.293-6.681,50.124-6.681,50.124H68.815z"/>
		<path fill="#F1A900" d="M62.142,151.054c0,0-0.462,41.887,19.339,74.151l-12.666,2.721
			C68.815,227.926,58.916,173.411,62.142,151.054z"/>
		<path fill="#F1A900" d="M62.303,151.054c0,0,0.457,41.887-19.349,74.15l12.665,2.722C55.62,227.926,65.524,173.411,62.303,151.054
			z"/>
		<path fill="#F1A900" d="M70.086,164.382c0,0-6.272-8.863-7.944-13.96c-1.675,5.097-7.947,13.959-7.947,13.959L70.086,164.382z"/>
	</g>
</g>
<g>
	<path fill="#F5CA5F" d="M90.369,240.164c6.6-15.534,29.929-36.951,57.662-36.906c27.611,0.049,50.799,21.373,57.479,36.911
		L90.369,240.164z"/>
	<path fill="#EFA700" d="M90.377,240.164c6.555-15.424,29.593-36.651,57.072-36.898l-0.001,36.9L90.377,240.164z"/>
</g>
<g>
	<path fill="#7ABA06" d="M434.284,183.411c-0.044-32.708-6.258-59.159-13.918-59.159c-7.662,0-13.875,26.451-13.92,59.159H434.284z"
		/>
	<polygon fill="#9EC92F" points="410.37,171.198 418.7,180.999 418.638,183.411 421.372,183.411 421.031,171.772 429.567,161.729 
		420.939,168.656 420.298,146.717 424.249,142.069 420.255,145.274 419.924,134.016 419.378,155.021 414.65,151.228 
		419.333,156.736 418.78,177.95 	"/>
</g>
<g>
	<path fill="#7ABA06" d="M963,233.411c-0.045-32.708-6.258-59.159-13.918-59.159c-7.662,0-13.876,26.451-13.921,59.159H963z"/>
	<polygon fill="#9EC92F" points="939.086,221.198 947.416,230.999 947.354,233.411 950.088,233.411 949.747,221.772 
		958.283,211.729 949.655,218.656 949.014,196.717 952.965,192.069 948.971,195.274 948.641,184.016 948.094,205.021 
		943.365,201.228 948.049,206.736 947.496,227.95 	"/>
</g>
<g>
	<path fill="#ACBF00" d="M380.327,187.308c-0.097-42.501-8.182-76.828-18.143-76.828c-9.96,0-18.042,34.327-18.14,76.828H380.327z"
		/>
	<polygon fill="#D5DB7C" points="349.16,171.659 360.017,184.434 359.942,187.308 363.492,187.308 363.054,172.406 374.176,159.321 
		362.936,168.346 362.097,139.755 367.247,133.697 362.042,137.875 361.611,123.204 360.897,150.581 354.737,145.635 
		360.84,152.814 360.12,180.461 	"/>
</g>
<g>
	<path fill="#ACBF00" d="M988.327,232.308c-0.097-42.501-8.183-76.828-18.144-76.828c-9.959,0-18.042,34.327-18.139,76.828H988.327z
		"/>
	<polygon fill="#D5DB7C" points="957.16,216.659 968.018,229.434 967.941,232.308 971.492,232.308 971.055,217.406 982.176,204.321 
		970.936,213.346 970.097,184.755 975.247,178.697 970.041,182.875 969.611,168.204 968.897,195.581 962.736,190.635 
		968.84,197.814 968.12,225.461 	"/>
</g>
<path fill="#85A100" d="M480.187,178.739c60.368,0,116.973,3.668,165.805,10.082c-33.9,3.741-98.078,6.269-171.681,6.269
	c-69.034,0-129.772-2.222-165.019-5.584C359.26,182.669,417.712,178.739,480.187,178.739z"/>
<g>
	<g>
		<path fill="#F1A900" d="M508.455,182.957c0,0,25.632-30.816,32.464-48.525c6.837,17.709,32.469,48.525,32.469,48.525H508.455z"/>
		<path fill="#717071" d="M536.703,182.957c0,0,3.33-20.095,4.216-31.642c0.891,11.547,4.217,31.642,4.217,31.642H536.703z"/>
		<path fill="#F7CC5E" d="M540.919,134.432c0,0,0.292,26.439-12.209,46.809l7.993,1.717
			C536.703,182.957,542.956,148.546,540.919,134.432z"/>
		<path fill="#F7CC5E" d="M540.82,134.432c0,0-0.292,26.439,12.211,46.809l-7.995,1.717
			C545.036,182.957,538.785,148.546,540.82,134.432z"/>
		<path fill="#F7CC5E" d="M535.905,142.846c0,0,3.961-5.596,5.014-8.813c1.06,3.218,5.017,8.813,5.017,8.813H535.905z"/>
	</g>
</g>
<g>
	<g>
		<path fill="#F7CC5E" d="M352.111,186.74c0,0,32.573-39.162,41.257-61.671c8.688,22.509,41.261,61.671,41.261,61.671H352.111z"/>
		<path fill="#717071" d="M388.011,186.74c0,0,4.229-25.536,5.357-40.212c1.128,14.676,5.358,40.212,5.358,40.212H388.011z"/>
		<path fill="#F1A900" d="M393.368,125.069c0,0,0.37,33.604-15.517,59.488l10.16,2.183
			C388.011,186.74,395.956,143.006,393.368,125.069z"/>
		<path fill="#F1A900" d="M393.239,125.069c0,0-0.369,33.604,15.52,59.488l-10.161,2.183
			C398.598,186.74,390.654,143.006,393.239,125.069z"/>
		<path fill="#F1A900" d="M386.995,135.763c0,0,5.032-7.112,6.373-11.2c1.344,4.088,6.375,11.2,6.375,11.2H386.995z"/>
	</g>
</g>
<path fill="#E8792E" d="M62.138,57.018c-13.424,0-24.306,10.883-24.306,24.307c0,13.421,24.306,42.408,24.306,42.408
	s24.303-28.987,24.303-42.408C86.441,67.9,75.559,57.018,62.138,57.018z M62.138,93.602c-6.783,0-12.278-5.498-12.278-12.277
	c0-6.783,5.495-12.28,12.278-12.28c6.781,0,12.279,5.497,12.279,12.28C74.417,88.104,68.919,93.602,62.138,93.602z"/>
<path fill="#E8792E" d="M540.923,57.018c-13.424,0-24.306,10.883-24.306,24.307c0,13.421,24.306,42.408,24.306,42.408
	s24.303-28.987,24.303-42.408C565.226,67.9,554.344,57.018,540.923,57.018z M540.923,93.602c-6.783,0-12.278-5.498-12.278-12.277
	c0-6.783,5.495-12.28,12.278-12.28c6.781,0,12.279,5.497,12.279,12.28C553.202,88.104,547.704,93.602,540.923,93.602z"/>
<path fill="#E8792E" d="M245.338,70.018c-8.192,0-14.833,6.642-14.833,14.834c0,8.19,14.833,25.881,14.833,25.881
	s14.832-17.69,14.832-25.881C260.17,76.659,253.529,70.018,245.338,70.018z M245.338,92.344c-4.14,0-7.493-3.355-7.493-7.492
	c0-4.14,3.354-7.494,7.493-7.494c4.138,0,7.494,3.354,7.494,7.494C252.832,88.988,249.477,92.344,245.338,92.344z"/>
<path fill="#E8792E" d="M460.744,70.018c-8.192,0-14.833,6.642-14.833,14.834c0,8.19,14.833,25.881,14.833,25.881
	s14.832-17.69,14.832-25.881C475.576,76.659,468.935,70.018,460.744,70.018z M460.744,92.344c-4.14,0-7.493-3.355-7.493-7.492
	c0-4.14,3.354-7.494,7.493-7.494c4.139,0,7.494,3.354,7.494,7.494C468.238,88.988,464.883,92.344,460.744,92.344z"/>
<path fill="#E8792E" d="M393.371,65.018c-10.204,0-18.477,8.272-18.477,18.478c0,10.202,18.477,32.237,18.477,32.237
	s18.475-22.035,18.475-32.237C411.846,73.29,403.573,65.018,393.371,65.018z M393.371,92.827c-5.156,0-9.334-4.18-9.334-9.332
	c0-5.156,4.178-9.335,9.334-9.335c5.154,0,9.334,4.179,9.334,9.335C402.705,88.647,398.525,92.827,393.371,92.827z"/>
<path fill="#E8792E" d="M890.839,65.018c-10.203,0-18.477,8.272-18.477,18.478c0,10.202,18.477,32.237,18.477,32.237
	s18.475-22.035,18.475-32.237C909.313,73.29,901.042,65.018,890.839,65.018z M890.839,92.827c-5.156,0-9.332-4.18-9.332-9.332
	c0-5.156,4.176-9.335,9.332-9.335s9.336,4.179,9.336,9.335C900.175,88.647,895.995,92.827,890.839,92.827z"/>
<g>
	<path fill="#96C011" d="M774.016,170.655c4.119-9.479,20.067-22.979,39.115-22.979c19.047,0.002,34.99,13.504,39.11,22.982
		L774.016,170.655z"/>
	<path opacity="0.53" fill="#82A600" d="M812.72,170.656l-38.704-0.001c4.088-9.409,19.839-22.775,38.705-22.971L812.72,170.656z"/>
</g>
<g>
	<path fill="#96C011" d="M734.056,178.838c3.129-7.604,15.235-18.439,29.697-18.438c14.459,0.001,26.563,10.837,29.694,18.441
		L734.056,178.838z"/>
	<path opacity="0.53" fill="#82A600" d="M763.44,178.84l-29.385-0.002c3.107-7.55,15.064-18.277,29.386-18.433L763.44,178.84z"/>
</g>
<g>
	<path fill="#96C011" d="M51.016,242.655c4.119-9.479,20.067-22.979,39.115-22.979c19.047,0.002,34.99,13.504,39.11,22.982
		L51.016,242.655z"/>
	<path opacity="0.53" fill="#82A600" d="M89.72,242.656l-38.704-0.001c4.088-9.409,19.839-22.775,38.705-22.971L89.72,242.656z"/>
</g>
<g>
	<path fill="#96C011" d="M11.056,250.838c3.129-7.604,15.235-18.439,29.697-18.438c14.459,0.001,26.563,10.837,29.694,18.441
		L11.056,250.838z"/>
	<path opacity="0.53" fill="#82A600" d="M40.44,250.84l-29.385-0.002c3.107-7.55,15.064-18.277,29.386-18.433L40.44,250.84z"/>
</g>
<g>
	<path fill="#96C011" d="M108.056,249.838c3.129-7.604,15.235-18.439,29.697-18.438c14.459,0.001,26.563,10.837,29.694,18.441
		L108.056,249.838z"/>
	<path opacity="0.53" fill="#82A600" d="M137.44,249.84l-29.385-0.002c3.107-7.55,15.064-18.277,29.386-18.433L137.44,249.84z"/>
</g>
<g>
	<g>
		<path fill="#F1A900" d="M195.623,195.456c0,0,39.251-47.185,49.716-74.305c10.468,27.12,49.714,74.31,49.714,74.31
			L195.623,195.456z"/>
		<path fill="#717071" d="M238.881,195.458c0,0,5.099-30.77,6.457-48.452c1.36,17.684,6.454,48.453,6.454,48.453L238.881,195.458z"
			/>
		<path fill="#F7CC5E" d="M245.338,121.151c0,0,0.444,40.489-18.702,71.679l12.245,2.628
			C238.881,195.458,248.457,142.766,245.338,121.151z"/>
		<path fill="#F7CC5E" d="M245.184,121.151c0,0-0.447,40.489,18.696,71.68l-12.243,2.628
			C251.637,195.459,242.068,142.765,245.184,121.151z"/>
		<path fill="#F7CC5E" d="M237.659,134.035c0,0,6.065-8.57,7.679-13.496c1.618,4.926,7.68,13.496,7.68,13.496H237.659z"/>
	</g>
</g>
<g>
	<g>
		<path fill="#F1A900" d="M824.623,230.455c0,0,52.278-62.846,66.215-98.967c13.943,36.121,66.215,98.973,66.215,98.973
			L824.623,230.455z"/>
		<path fill="#717071" d="M882.238,230.457c0,0,6.791-40.981,8.6-64.533c1.811,23.553,8.595,64.535,8.595,64.535L882.238,230.457z"
			/>
		<path fill="#F7CC5E" d="M890.838,131.488c0,0,0.594,53.928-24.908,95.469l16.309,3.5
			C882.238,230.457,894.992,160.276,890.838,131.488z"/>
		<path fill="#F7CC5E" d="M890.633,131.488c0,0-0.595,53.928,24.901,95.47l-16.307,3.501
			C899.228,230.459,886.483,160.275,890.633,131.488z"/>
		<path fill="#F7CC5E" d="M880.611,148.648c0,0,8.078-11.415,10.227-17.976c2.156,6.561,10.23,17.976,10.23,17.976H880.611z"/>
	</g>
</g>
<path fill="#85A100" d="M892.063,225.488c41.846,0,81.087,2.075,114.937,5.702c-23.5,2.115-67.988,3.542-119.01,3.542
	c-47.853,0-89.957-1.254-114.391-3.158C808.238,227.709,848.757,225.488,892.063,225.488z"/>
<g>
	<path fill="#7AB80A" d="M578.314,220.218c0.045-32.119,6.152-58.1,13.674-58.1c7.521,0.001,13.624,25.982,13.669,58.102
		L578.314,220.218z"/>
	<polygon fill="#9CC730" points="601.8,208.226 593.618,217.85 593.679,220.219 590.995,220.219 591.332,208.788 582.949,198.927 
		591.42,205.729 592.053,184.184 588.171,179.617 592.096,182.769 592.418,171.709 592.955,192.339 597.599,188.614 593,194.022 
		593.539,214.854 	"/>
</g>
<g>
	<path fill="#4A8028" d="M616.18,225.22c0.1-43.743,8.423-79.079,18.677-79.078c10.251,0,18.572,35.337,18.668,79.08L616.18,225.22z
		"/>
	<polygon fill="#9CC730" points="648.26,209.114 637.083,222.265 637.163,225.22 633.508,225.22 633.955,209.884 622.512,196.415 
		634.08,205.706 634.945,176.276 629.644,170.042 635.002,174.341 635.444,159.239 636.181,187.419 642.521,182.327 
		636.237,189.716 636.979,218.173 	"/>
</g>
<g>
	<path fill="#5FA12C" d="M647.426,225.221c0.048-32.12,6.152-58.1,13.674-58.099c7.523,0,13.625,25.98,13.671,58.1L647.426,225.221z
		"/>
	<polygon fill="#9CC730" points="670.914,213.228 662.731,222.853 662.794,225.222 660.108,225.222 660.443,213.79 652.062,203.93 
		660.533,210.732 661.165,189.187 657.284,184.62 661.21,187.771 661.53,176.712 662.068,197.342 666.709,193.616 662.111,199.025 
		662.656,219.858 	"/>
</g>
<path fill="#85A100" d="M524.684,216.435c60.434,0,117.104,2.998,165.989,8.235c-33.938,3.056-98.188,5.116-171.872,5.116
	c-69.108,0-129.915-1.812-165.201-4.562C403.625,219.644,462.14,216.435,524.684,216.435z"/>
<g>
	<g>
		<path fill="#F1A900" d="M396.762,221.078c0,0,50.512-60.728,63.979-95.629c13.472,34.901,63.983,95.629,63.983,95.629H396.762z"/>
		<path fill="#717071" d="M452.435,221.078c0,0,6.56-39.598,8.307-62.355c1.751,22.758,8.309,62.355,8.309,62.355H452.435z"/>
		<path fill="#F7CC5E" d="M460.742,125.449c0,0,0.574,52.108-24.065,92.246l15.759,3.383
			C452.435,221.078,464.756,153.263,460.742,125.449z"/>
		<path fill="#F7CC5E" d="M460.542,125.449c0,0-0.573,52.108,24.066,92.246l-15.756,3.383
			C468.852,221.078,456.533,153.263,460.542,125.449z"/>
		<path fill="#F7CC5E" d="M450.858,142.029c0,0,7.805-11.029,9.883-17.368c2.082,6.339,9.884,17.368,9.884,17.368H450.858z"/>
	</g>
</g>
</svg>
