<?xml version="1.0" encoding="utf-8"?>
<!-- Generator: Adobe Illustrator 16.0.0, SVG Export Plug-In . SVG Version: 6.00 Build 0)  -->
<!DOCTYPE svg PUBLIC "-//W3C//DTD SVG 1.1//EN" "http://www.w3.org/Graphics/SVG/1.1/DTD/svg11.dtd">
<svg version="1.1" id="圖層_1" xmlns="http://www.w3.org/2000/svg" xmlns:xlink="http://www.w3.org/1999/xlink" x="0px" y="0px"
	 width="1160px" height="552.018px" viewBox="0 0 1160 552.018" enable-background="new 0 0 1160 552.018" xml:space="preserve">
<g>
	<defs>
		<rect id="SVGID_2_" x="-1" y="-61.982" width="1162" height="614"/>
	</defs>
	<clipPath id="SVGID_1_">
		<use xlink:href="#SVGID_2_"  overflow="visible"/>
	</clipPath>
	<g clip-path="url(#SVGID_1_)">
		<g>
			<path fill="#FFFFFF" d="M1169.102,213.852v198.764l-36.504,1.129l-20.519,0.646l-41.035,1.274l-7.776,0.243l-7.6,0.241
				l-7.273,0.227l-23.438,0.726l-4.291,0.145l-2.032,0.049l-10.422,0.339l-3.871,0.111l-21.099,0.663l-49.199,1.531l-28.488,0.887
				l-5.549,0.163l-1.194,0.047l-13.839,0.421l-14.775,0.468l-34.278,1.064l-7.034,0.226l-30.504,0.952l-19.001,0.581l-2.048,0.064
				l-38.149,1.192l-1.969,0.064l-14.55,0.452l-2.629,0.08l-25.584,0.791l-1.017,0.032l-39.166,1.227l-0.822,0.016l-10.986,0.339
				l-4.437,0.145l-29.309,0.921l-3.838,0.111l-17.939,0.565l-9.533,0.29l-289.886,9.033l-10.825,0.322l-50.633,1.581l-8.648,0.274
				l-4.53,0.145l-104.626,3.242l-3.048,0.098l-14.486,0.452l-2.209,0.08l-5.307,0.161l-2.871,0.08l-8.065,0.259l-9.534,0.29
				l-12.856,0.402l-3.226,0.099l-30.407,0.951l-56.957,1.773V332.188c0,0,27.099-43.57,64.12-22.584
				c2.774-3.034,5.759-5.774,8.904-8.228c31.165-24.211,78.558-19.712,104.447,9.211c3.324,3.693,6.275,7.791,8.808,12.274
				c0,0,2.13-4.452,6.194-9.565c5.517-6.902,14.549-15.017,26.663-14.968c2.388,0.016,4.906,0.354,7.518,1.065
				c-12.872-46.056,49.054-68.59,74.025-37.554c16.082-48.731,102.995-96.752,152.872-40.552
				c54.716-40.36,138.403,14.211,102.995,88.315c49.895-20.858,48.361,9.354,48.361,9.354s32.101-59.184,78.767-49.536
				c0-50.347,90.56-105.69,143.565-47.942c4.581,5,8.887,10.825,12.824,17.583c11.485-20.84,23.325-31.972,33.521-37.81
				c15.953-9.146,27.841-5.293,27.841-5.293s-2.952-61.426,54.603-54.328c14.099-50.828,146.227-90.22,152.581,30.86
				c40.15-1.228,43.201,35.214,43.201,35.214S1143.276,179.187,1169.102,213.852z"/>
			<g>
				<path fill="#E6CFED" d="M1169.102,309.604v251.77H-40.712V239.063c0,0,74.523-36.18,124.836-5.323
					c22.809,14.002,40.392,39.264,56.313,62.878c2.387,3.566,4.758,7.082,7.08,10.517c0.403,0.583,0.791,1.163,1.194,1.742
					c1.018,1.484,2.032,2.97,3.049,4.42c13.195,18.971,25.841,34.408,40.229,38.104c1.711,0.435,3.453,0.709,5.211,0.807
					c2.517,0.128,5.033,0,7.533-0.356h0.016c10.001-1.437,19.92-6.597,29.826-13.775c4.307-3.114,8.598-6.615,12.905-10.356
					c15.292-13.274,30.664-29.567,46.44-42.634c16.066-13.292,32.536-23.244,49.765-23.244c49.747,0,100.461,86.315,153.807,86.091
					c3.565-0.017,7.13-0.419,10.727-1.259c22.632-5.308,50.102,4.677,79.978,17.68c12.388,5.387,25.194,11.292,38.245,16.857
					c12.438,5.291,25.1,10.257,37.828,14.146c7.693,2.354,15.418,4.323,23.147,5.71c3.854,0.711,7.709,1.259,11.55,1.646
					c10.081,1.065,20.113,1.017,30.065-0.517c2.744-0.419,5.485-0.967,8.212-1.629c0.824-0.193,1.662-0.403,2.484-0.63
					c11.872-3.162,23.551-8.694,34.909-17.195c2.078-1.565,4.144-3.226,6.209-5.001c9.243-7.936,18.631-16.291,28.132-24.906
					c13.63-12.355,27.471-25.227,41.392-38.037c0.306-0.273,0.597-0.548,0.904-0.822c3.322-3.064,6.645-6.112,9.968-9.146
					c6.727-6.162,13.469-12.259,20.195-18.261c3.275-2.917,6.551-5.806,9.809-8.66c0.562-0.485,1.111-0.968,1.661-1.438
					c6.889-6,13.744-11.839,20.567-17.452c6.193-5.098,12.354-10.018,18.485-14.695c14.13-10.806,28.052-20.373,41.619-28.116
					c27.903-15.905,54.312-24.034,77.959-19.067c31.938,6.728,57.846,27.762,77.121,49.83
					C1155.116,277.293,1169.102,309.604,1169.102,309.604z"/>
				<path opacity="0.1" fill="#9D56A0" d="M777.332,424.812c0.016,12.549-1.518,25.099-5.339,36.535
					c-3.92,11.793-10.259,22.423-19.809,30.665c-0.051,0.032-0.082,0.081-0.129,0.112c-12.664,10.889-29.197,15.971-45.538,19.567
					c-0.564,0.129-1.13,0.243-1.695,0.371c-0.466,0.097-0.951,0.209-1.418,0.291c-7.904,1.677-15.856,3.112-23.858,4.387
					c-7.741,1.227-15.501,2.308-23.293,3.29c-8.903,1.13-17.825,2.146-26.761,3.146c-5.5,0.613-10.985,1.226-16.486,1.839
					c-0.032,0-0.063,0.018-0.096,0.018c-0.13,0.016-0.258,0.031-0.387,0.047c-8.194,0.921-16.39,1.888-24.552,2.952
					c-0.776,0.113-1.549,0.21-2.338,0.308c-6.519,0.887-13.018,1.838-19.486,2.903c-5.63,0.936-11.244,1.951-16.826,3.081
					c-2.257,0.452-4.531,0.936-6.774,1.436c-0.273,0.049-0.549,0.112-0.807,0.178c-2.773,0.597-5.517,1.241-8.258,1.918v0.018
					c-2.711,0.662-5.405,1.354-8.083,2.098c-4.547,1.24-9.065,2.598-13.564,4.063c-4.083,1.339-8.147,2.759-12.18,4.307
					c-1.323,0.501-2.646,1.018-3.968,1.548c-8.017,3.227-15.823,6.856-23.501,10.761c-0.485,0.241-0.953,0.484-1.437,0.726h-511.46
					V370.74c9.017,4.371,17.453,11.033,24.583,17.953c11.5,11.163,22.809,23.987,36.698,31.182
					c4.291,2.226,8.824,3.903,13.679,4.839c4.178,0.807,8.307,1,12.404,0.741c1-0.064,2-0.16,3-0.273
					c6.469-0.774,12.856-2.629,19.212-5.018c2.598-0.967,5.178-2.032,7.775-3.161c11.21-4.823,22.406-10.614,33.906-14.275
					c1.969-0.629,3.968-1.194,5.953-1.662c5.209-1.29,10.485-2.016,15.873-1.936c18.195,0.291,36.407,10.033,53.926,5.066
					c7.709-2.195,14.307-7.034,20.873-11.745c1.018-0.741,2.048-1.467,3.065-2.193c4.405-3.08,9.032-5.952,13.824-8.55
					c11.954-6.482,24.955-11.259,38.133-13.452c15.325-2.518,30.875-1.549,45.312,4.338c36.15,14.776,59.878,57.491,98.882,59.557
					c31.568,1.678,58.541-24.956,90.09-26.843c21.647-1.291,41.975,9.18,62.266,16.809c6.259,2.354,12.598,4.436,19.018,6.227
					c3.051,0.872,6.097,1.679,9.178,2.404c5.955,1.436,11.954,2.645,18.002,3.614c1.323,0.24,2.663,0.434,4.002,0.628
					c10.243,1.517,20.599,2.371,30.954,2.598c1.354,0.032,2.727,0.047,4.083,0.047c9.404,0.065,18.824-0.386,28.195-1.37
					c4.905-0.501,9.776-1.161,14.631-1.951c2.211-0.355,4.42-0.743,6.614-1.18c2.564-0.468,5.131-0.999,7.695-1.563
					c6.371-1.404,12.678-3.065,18.921-4.969c0.951-0.289,1.904-0.58,2.838-0.887c4.823-1.517,9.599-3.194,14.324-5.017
					c0.709-0.274,1.403-0.549,2.114-0.838c12.598-4.97,24.776-11.003,36.374-18.052
					C776.702,409.294,777.315,417.052,777.332,424.812z"/>
				<path fill="#F8F8F8" d="M204.734,351.851c-3.677,2.21-7.419,4.308-11.209,6.292c-2.341,1.24-4.694,2.435-7.083,3.58
					c-16.793,8.099-35.633,14.277-53.894,10.519c-3.258-0.678-6.468-1.76-9.533-3.21c-14.066-6.615-24.938-20.634-23.132-35.845
					c0.791-6.645,3.855-13.097,3.113-19.76c-1.581-14.211-19.147-20.872-33.342-19.324c-12.615,1.388-24.793,6.661-37.343,7.274
					c-1.58,0.081-3.177,0.096-4.775,0c-14.275-0.806-29.519-14.308-24.18-27.567c1.969-4.872,6.42-8.856,6.727-14.114
					c0.629-11.066-15.356-13.729-26.212-11.502c-8.308,1.694-16.502,3.84-24.583,6.404v-15.534c0,0,74.523-36.18,124.836-5.323
					c22.809,14.002,40.392,39.264,56.313,62.878c2.387,3.566,4.758,7.082,7.08,10.517c0.403,0.583,0.791,1.163,1.194,1.742
					c1.018,1.484,2.032,2.97,3.049,4.42c13.195,18.971,25.841,34.408,40.229,38.104c1.711,0.435,3.453,0.709,5.211,0.807
					C199.719,352.335,202.234,352.207,204.734,351.851z"/>
				<path fill="#F8F8F8" d="M497.494,347.932c-20.066,11.953-46.038,9.146-69.523,5.79c-10.082-1.452-20.617-3.08-28.828-9.13
					c-8.516-6.259-13.194-16.324-19.694-24.68c-6.503-8.342-17.035-15.55-27.085-12.276c-14.193,4.597-21.42,27.713-35.696,23.39
					c-7.678-2.322-10.551-11.887-9.937-19.889c0.611-7.984,3.451-15.938,2.193-23.857c-5.082,0.597-10.307-0.179-15.001-2.194
					c16.066-13.292,32.536-23.244,49.765-23.244C393.434,261.841,444.148,348.156,497.494,347.932z"/>
				<path fill="#F8F8F8" d="M1128.661,246.969c-12.099,4.017-24.534,5.63-36.084,0.854c-12.066-5-24.263-16.743-35.988-10.984
					c-12.05,5.92-10.163,24.52-19.357,34.294c-5.79,6.179-14.839,7.662-23.049,9.695c-34.717,8.614-69.477,34.988-106.773,23.921
					c-12.098-3.58-20.501-10.032-25.97-18.181c60.992-54.343,121.416-99.671,170.101-89.429
					C1083.479,203.866,1109.386,224.9,1128.661,246.969z"/>
			</g>
			<path fill="#FFFFFF" d="M974.628,39.805H717.836c0,0,23.905-8.632,53.944-4.316c-4.336-20.439,79.169-35.305,82.941-5.574
				c24.213-6.503,32.237,4.646,32.237,4.646S920.743,25.539,974.628,39.805z"/>
			<path fill="#FFFFFF" d="M374.096,143.378H190.415c0,0,19.869-9.656,45.413-8.047c2.969-28.966,51.237-37.374,41.526-0.179
				C307.777,122.459,374.096,143.378,374.096,143.378z"/>
		</g>
		<g>
			<path fill="#246887" d="M702.706,485.905l-17.492-2.284l16.726-2.78c-2.429-16.104-4.824-31.49-6.852-43.701l-12.27-4.207h11.561
				c-1.075-6.348-2.029-11.634-2.808-15.426c-2.101-10.271-5.769-22.36-9.732-33.945l-9.885-2.721l8.763-0.516
				c-7.759-22.158-16.192-41.63-16.192-41.63s-6.147,19.459-13.425,50.203v0.009l13.425,6.39l-15.785,3.802
				c-2.382,10.543-4.812,22.139-7.159,34.533l13.388-5.601l-14.721,12.868c-7.456,41.346-13.496,90.579-12.456,138.537
				c64.582,0,88.446,0,88.446,0S709.44,530.881,702.706,485.905z"/>
			<path fill="#246887" d="M983.65,300.663l14.246-1.852c-8.21-31.892-17.196-63.013-26.417-88.51l-16.569-3.961l14.124-2.633
				c-5.531-14.618-11.134-27.092-16.685-36.352c-5.873,16.279-11.261,35.996-16.166,57.505l12.32,5.418h-13.537
				c-2.664,12.038-5.179,24.578-7.544,37.354l34.413,2.79l-36.437,8.375c-16.912,95.609-25.586,199.57-25.586,199.57h137.103
				c0,0-15.963-88.905-37.658-174.25L983.65,300.663z"/>
			<path fill="#246887" d="M784.475,305.244l-20.592-7.507c8.787-33.65,18.57-66.539,28.912-93.585l20.485-5.031l-17.737-1.966
				c6.233-15.52,13.153-45.579,19.658-55.522c8.066,16.626,15.187,53.623,22.286,75.742l-15.121,6.314l16.888-0.741
				c3.872,12.386,7.584,25.303,11.118,38.472l-27.4,15.133l30.431-3.618c25.466,98.598,41.04,206.343,41.04,206.343L704.256,496.3
				c0,0,27.312-102.981,50.475-193.009L784.475,305.244z"/>
			<path fill="#246887" d="M181.781,390.218l17.002-7.665c-6.969-33.569-14.764-66.369-23.062-93.325l-16.82-4.871l14.611-2.104
				c-5.008-15.465-10.47-45.461-15.744-55.349c-6.767,16.683-12.914,53.722-18.929,75.89l12.395,6.194l-13.89-0.609
				c-3.284,12.411-6.438,25.353-9.45,38.546l22.43,14.912l-25.013-3.381c-21.721,98.764-35.373,206.594-35.373,206.594
				l156.368,15.535c0,0-21.676-102.731-40.034-192.55L181.781,390.218z"/>
			<path fill="#247CA7" d="M1033.652,384.516l20.182-14.004c-6.973-31.892-14.602-63.015-22.435-88.509l-14.07-3.962l11.994-2.633
				c-4.697-14.617-9.454-27.092-14.171-36.351c-4.984,16.279-9.562,35.994-13.727,57.504l10.463,5.417h-11.495
				c-2.264,12.038-4.4,24.579-6.41,37.354l8.514,2.89l-10.228,8.276c-14.363,95.608-21.729,199.569-21.729,199.569h116.428
				c0,0-13.557-88.904-31.98-174.248L1033.652,384.516z"/>
			<path fill="#247CA7" d="M617.11,422.064l16.809-10.827c-5.807-24.659-12.161-48.722-18.687-68.437l-11.717-3.062l9.988-2.037
				c-3.914-11.302-7.873-20.947-11.803-28.106c-4.15,12.588-7.963,27.831-11.433,44.464l8.714,4.187h-9.574
				c-1.884,9.309-3.663,19.004-5.337,28.884l14.911-3.643l-16.339,12.276c-11.962,73.923-18.099,154.305-18.099,154.305h96.973
				c0,0-11.291-68.74-26.638-134.727L617.11,422.064z"/>
			<path opacity="0.2" fill="#67A2A0" d="M606.667,384.516l6.364,141.246C613.031,525.762,600.229,452.933,606.667,384.516z"/>
			<path opacity="0.2" fill="#67A2A0" d="M1018.637,312.521v132.761C1018.637,445.282,1025.928,372.597,1018.637,312.521z"/>
			<path fill="#247CA7" d="M61.664,454.118l20.184-14.005c-6.975-31.892-14.604-63.015-22.437-88.509l-14.068-3.963l11.993-2.631
				c-4.697-14.619-9.453-27.094-14.169-36.351c-4.985,16.278-9.562,35.994-13.728,57.504l10.463,5.417H28.406
				c-2.263,12.038-4.399,24.579-6.409,37.354l8.513,2.889l-10.228,8.277C5.919,515.71-1.447,619.671-1.447,619.671H114.98
				c0,0-13.557-88.904-31.98-174.248L61.664,454.118z"/>
			<path opacity="0.2" fill="#67A2A0" d="M46.648,382.124v132.759C46.648,514.883,53.94,442.199,46.648,382.124z"/>
			<path fill="#247CA7" d="M1111.111,404.129l16.812-10.826c-5.81-24.66-12.164-48.724-18.686-68.437l-11.72-3.062l9.99-2.035
				c-3.913-11.303-7.873-20.948-11.802-28.107c-4.153,12.588-7.965,27.834-11.434,44.462l8.715,4.19h-9.575
				c-1.885,9.307-3.664,19.005-5.336,28.881l14.911-3.642l-16.343,12.276c-11.962,73.923-18.097,154.305-18.097,154.305h96.971
				c0,0-11.291-68.741-26.634-134.728L1111.111,404.129z"/>
			<path fill="#2B87BE" d="M732.469,364.562l-24.972-5.465c6.943-33.922,14.54-67.022,22.337-94.139l14.011-4.213l-11.94-2.802
				c4.676-15.546,9.411-28.813,14.108-38.663c4.962,17.315,9.521,38.286,13.667,61.161l-10.419,5.763h11.446
				c2.253,12.805,4.381,26.143,6.384,39.73l-17.437,7.598l19.143,4.278c14.302,101.686,21.636,212.257,21.636,212.257H674.506
				c0,0,13.499-94.559,31.841-185.327L732.469,364.562z"/>
			<path fill="#2B87BE" d="M932.447,407.389l-23.922-3.646l22.873-4.436c2.334-22.971,1.458-49.988-1.314-69.476l-9.581-6.97
				l7.3-3.897c-1.468-10.129-4.073-21.378-5.139-27.427c-2.873-16.39-8.493-28.971-13.913-47.458l-15.132-4.339l13.598-0.822
				c-10.613-35.358-26.987-66.426-26.987-66.426s-8.402,31.052-18.354,80.105v0.016l18.354,10.194l-21.581,6.065
				c-3.261,16.825-6.581,35.326-9.792,55.104l19.401,7.38l-21.226,4.217c-10.195,65.975-18.452,144.531-17.034,221.058
				c88.317,0,120.948,0,120.948,0S941.656,479.155,932.447,407.389z"/>
			<path fill="#247CA7" d="M872.277,437.951l-19.023-2.9l18.191-3.527c-2.643-20.435-5.249-39.959-7.454-55.454l-13.341-5.336
				h12.572c-1.169-8.056-2.208-14.765-3.053-19.575c-2.284-13.032-6.273-28.374-10.582-43.075l-10.75-3.45l9.53-0.654
				c-8.439-28.119-17.612-52.824-17.612-52.824s-6.685,24.692-14.599,63.703v0.012l14.599,8.106l-17.164,4.824
				c-2.593,13.378-5.233,28.092-7.788,43.817l14.562-7.104l-16.011,16.328c-8.106,52.465-14.674,114.936-13.544,175.791
				c70.23,0,96.181,0,96.181,0S879.603,495.021,872.277,437.951z"/>
			<path opacity="0.2" fill="#67A2A0" d="M741.844,299.647l-3.928,185.958C737.916,485.605,734.693,346.138,741.844,299.647z"/>
			<path fill="#2B87BE" d="M82.011,479.39l-24.972-5.466c6.944-33.92,14.54-67.021,22.339-94.137l14.009-4.214l-11.942-2.799
				c4.678-15.549,9.414-28.815,14.109-38.664c4.964,17.315,9.521,38.285,13.667,61.159l-10.417,5.765h11.446
				c2.253,12.802,4.38,26.14,6.381,39.729l-17.435,7.6l19.143,4.276c14.3,101.688,21.635,212.258,21.635,212.258H24.048
				c0,0,13.499-94.558,31.842-185.327L82.011,479.39z"/>
			<path opacity="0.2" fill="#67A2A0" d="M91.386,414.475l-3.928,185.959C87.458,600.434,84.234,460.964,91.386,414.475z"/>
			<path opacity="0.2" fill="#67A2A0" d="M890.394,261.841l9.42,177.991C899.813,439.832,902.336,320.587,890.394,261.841z"/>
			<path fill="#2B87BE" d="M279.768,460.625l-17.495-2.284l16.727-2.78c-2.429-16.104-4.824-31.489-6.853-43.702l-12.269-4.205
				h11.56c-1.073-6.348-2.029-11.635-2.807-15.427c-2.099-10.27-5.769-22.361-9.732-33.946l-9.883-2.719l8.765-0.517
				c-7.763-22.157-16.197-41.628-16.197-41.628s-6.146,19.46-13.424,50.201v0.009l13.424,6.39l-15.783,3.803
				c-2.383,10.541-4.812,22.138-7.16,34.532l14.288,5.578l-15.621,1.69c-7.456,41.346-13.495,90.578-12.457,138.536
				c64.583,0,88.445,0,88.445,0S286.501,505.601,279.768,460.625z"/>
		</g>
		<path fill="#4CADD7" d="M1169.102,481.849v79.525H576.985c0,0,0.548-4.483,2.099-11.307c1.29-5.792,3.306-13.26,6.308-21.132
			c0.078-0.193,0.16-0.403,0.242-0.597c2.032-5.243,4.499-10.647,7.482-15.841c4.131-7.162,9.243-13.888,15.566-19.213
			c0.904-0.757,1.825-1.499,2.792-2.192c6.274-4.63,13.663-7.872,22.309-8.889c1.92-0.241,3.919-0.355,5.968-0.355
			c-0.999-9.032,0.774-16.937,4.518-23.631c5.692-10.179,15.936-17.567,27.905-21.954c3.598-1.323,7.355-2.371,11.18-3.146
			c0.307-0.065,0.612-0.114,0.917-0.179c3.1-0.579,6.245-0.983,9.405-1.192c0.162-0.032,0.324-0.032,0.485-0.032
			c2.322-0.161,4.645-0.21,6.953-0.146c6.71,0.146,13.309,1.145,19.42,3.048c6.26,1.937,12.002,4.808,16.777,8.647
			c0.517,0.402,0.998,0.821,1.483,1.258c6.065,5.339,10.388,12.389,11.984,21.229c10.534-6.194,17.115-6.452,21.214-4.404
			c6.565,3.242,6.823,12.308,6.823,12.308s1.209-4.452,4.369-10.791c2.728-5.451,6.889-12.324,12.987-18.971
			c7.596-8.307,18.194-16.259,32.712-20.679c2.307-0.71,4.695-1.322,7.196-1.839c6.742-1.371,14.227-2.018,22.517-1.679
			c1.551-7.29,4.599-13.823,8.727-19.469c3.258-4.484,7.213-8.422,11.6-11.729c5.37-4.048,11.388-7.162,17.68-9.226
			c1.016-0.339,2.048-0.646,3.097-0.92c3.661-0.998,7.403-1.646,11.115-1.871c7.564-0.533,15.066,0.532,21.809,3.371
			c9.726,4.082,17.889,11.856,22.533,23.89c13.017-10.919,23.212-11.662,30.891-8.226c10.567,4.741,16.389,17.356,18.293,22.227
			c0.484,1.229,0.711,1.952,0.711,1.952s1.128-0.887,3.16-2.063c2.372-1.403,5.985-3.227,10.422-4.533
			c0.74-0.226,1.499-0.436,2.274-0.613c0.967-0.241,1.966-0.435,2.984-0.597c7.161-1.162,15.711-0.58,24.502,4.485
			c1.628,0.936,3.292,2.047,4.937,3.321c0.724-1.257,1.516-2.451,2.337-3.548c1.888-2.483,4.033-4.564,6.39-6.291
			c3.178-2.323,6.727-3.984,10.485-5c12.951-3.582,28.373,0.256,39.536,9.532c15.388,12.793,22.63,35.939,4.001,64.249
			c20.92,0,25.759,17.663,25.759,17.663s0.904-4.823,5.712-8.902C1151.518,484.01,1158.15,481.123,1169.102,481.849z"/>
		<path fill="#4CADD7" d="M622.767,546.228c-3.292,1.354-6.406,2.629-9.342,3.84c-11.711,4.822-20.646,8.501-27.453,11.307
			c-0.063,0.018-0.146,0.049-0.21,0.082c-1.032,0.418-2.017,0.822-2.95,1.21c-2.196,0.902-4.131,1.708-5.842,2.402
			c-12.855,5.291-12.855,5.291-12.855,5.291l-3.663-0.049h-0.111l-0.807-0.016l-13.502-0.21l-12.403-0.178l-19.342-0.29
			l-15.712-0.226l-29.067-0.437l-12.857-0.193l-0.887-0.016l-60.217-0.887l-99.366-1.484l-41.31-0.612l-7.486-0.114l-0.936-0.015
			l-3.305-0.049l-36.956-0.549l-74.767-1.096l-25.697-0.388l-15.583-0.227l-1.887-0.032l-1.355-0.016l-46.488-0.695l-36.973-0.548
			l-44.149-0.661v-68.895c0,0,21.792-24.229,53.086-13.872c2.549,0.838,5.146,1.918,7.808,3.241
			c2.774-14.518,14.146-22.502,26.47-24.147c1.033-0.145,2.065-0.225,3.098-0.273c3.548-0.178,7.113,0.176,10.516,1.016
			c11.534,2.872,21.342,11.534,22.68,25.81c1.468-1.179,2.888-2.21,4.291-3.13c0,0,0,0,0.017,0c0.935-0.613,1.854-1.161,2.759-1.66
			c0.016-0.018,0.031-0.018,0.047-0.018c4.808-2.629,9.179-3.726,13.115-3.774c8.727-0.146,15.292,4.808,19.469,9.355
			c3.534,3.872,5.356,7.453,5.356,7.453s21.259-48.603,82.929-36.343c1.824,0.355,3.678,0.774,5.583,1.242
			c0.789-2.178,1.708-4.242,2.756-6.163c1.887-3.482,4.178-6.564,6.793-9.242c12.887-13.292,33.292-16.696,49.328-9.937
			c4.468,1.871,8.598,4.532,12.13,8.033c7.839,7.679,12.727,19.325,11.792,34.972c-0.017,0.598-0.066,1.194-0.129,1.807
			c-0.035,0.548-0.082,1.097-0.163,1.645c-0.112,1.099-0.258,2.227-0.436,3.355c35.409-6.437,40.231,19.309,40.231,19.309
			s20.438-32.825,56.62-25.745c0.466-4.741,2.338-9.161,5.29-13.179c25.148-34.115,129.838-38.825,140.355,38.924
			c29.47,1.613,24.407,17.713,24.407,17.713s0.692-0.468,1.918-1.162c4.162-2.323,14.55-7.193,25.712-5.21
			c5.825,1.033,11.875,3.936,17.325,10.065c0.71,0.791,1.404,1.613,2.082,2.516c3.693,4.856,7.08,11.341,9.855,19.939
			C622.508,545.421,622.638,545.824,622.767,546.228z"/>
		<path fill="#2B87BE" d="M1169.102,506.9v54.474H-40.712v-47.876c0,0,19.985-10.517,50.941-16.759
			c10.919-2.212,23.179-3.873,36.422-4.372c0.565-0.018,1.145-0.033,1.71-0.049c1.662-0.049,3.323-0.08,5-0.098
			c10.711-0.062,21.986,0.679,33.633,2.549c0.887,0.146,1.79,0.291,2.678,0.436c1.21,0.226,2.419,0.436,3.629,0.678
			c2.129,0.403,4.274,0.856,6.419,1.354c8.324,1.904,16.777,4.405,25.326,7.631c6.501,2.451,13.034,5.308,19.583,8.63
			c16.374-32.391,45.295-33.826,62.331-20.825c9.917,7.565,15.791,20.034,12.775,34.134c5.016-2.356,9.808-3.809,14.322-4.55
			c14.099-2.355,25.665,2.05,33.632,6.969c0.243,0.13,0.469,0.273,0.695,0.419v0.018h0.017c1.273,0.807,2.451,1.613,3.516,2.402
			c2.146,1.613,3.888,3.13,5.176,4.355c1.775,1.693,2.711,2.823,2.711,2.823s2.21-1.177,6.243-2.984
			c1.29-0.597,2.792-1.243,4.452-1.936c21.874-9.162,74.186-26.455,127.757-10.244c-4.419-45.069,50.748-53.99,74.493-37.729
			c0.241,0.162,0.466,0.307,0.677,0.484c0.741,0.517,1.434,1.08,2.095,1.661c3.082,2.679,5.405,5.889,6.679,9.614
			c0.904,2.58,1.291,5.42,1.065,8.484c1.727-0.016,3.387,0.033,5,0.129c2.952,0.178,5.71,0.517,8.276,1.033
			c2.048,0.387,3.967,0.887,5.774,1.45c2.581,0.823,4.919,1.792,7.08,2.904c0.419,0.21,0.84,0.437,1.261,0.662
			c10.388,5.774,15.821,14.517,18.661,21.551c2.565,6.388,2.986,11.356,2.986,11.356s4.95-3.565,13.257-7.952
			c5.355-2.841,12.099-6.018,19.827-8.792c0.838-0.307,1.709-0.613,2.58-0.904c6.887-2.339,14.471-4.322,22.47-5.468
			c0.678-0.098,1.354-0.178,2.032-0.274c0.129-0.015,0.273-0.032,0.402-0.049c5.423-0.644,11.034-0.902,16.73-0.612
			c1.887,0.081,3.774,0.242,5.678,0.452c-1.34-13.873,6.611-23.697,16.259-27.358c10.921-4.161,24.021-0.42,28.101,14.324
			c0.387-0.079,0.76-0.145,1.128-0.193c9.986-1.742,17.293,0.114,22.633,3.501c1.322,0.854,2.531,1.807,3.63,2.807
			c8.774,8.081,10.356,20.292,10.356,20.292s16.839-34.682,57.617-45.473c3.339-0.887,6.823-1.613,10.484-2.13
			c2.274-0.355,4.631-0.613,7.051-0.774c4.742-0.354,9.727-0.371,14.985-0.015c2.129,0.145,4.29,0.339,6.502,0.612
			c0.516-0.468,1.03-0.904,1.547-1.323c0.016,0,0.016-0.016,0.016-0.016c5.163-4.178,10.647-6.452,15.986-7.533
			c12.051-2.42,23.374,1.306,28.698,3.55c2.017,0.853,3.175,1.483,3.175,1.483s0.259-0.694,0.824-1.856
			c1.501-3.048,5.114-9.323,11.729-14.613c4-3.179,9.063-6.018,15.436-7.565c3.082-0.758,6.47-1.211,10.194-1.26
			c0.791,0,1.613,0,2.455,0.033c1.499-10.953,13.934-22.599,31.146-29.294c13.729-5.354,30.504-7.581,47.183-3.823
			c12.567,2.808,25.085,9.018,36.216,19.811c2.919,2.838,5.741,5.983,8.453,9.468c1.645-0.903,3.289-1.711,4.918-2.438
			c12.696-5.58,24.811-5.645,34.665-1.822c1.211,0.452,2.389,0.97,3.517,1.549c17.374,8.808,26.181,30.408,15.648,53.765
			c28.003-2.193,36.777,19.228,36.777,19.228s10.871-12.403,28.761-16.823C1156.697,506.886,1162.634,506.272,1169.102,506.9z"/>
		<path opacity="0.2" fill="#67A2A0" d="M810.328,561.38c0,0,12.248-25.689,50.377-21.229c-6.927-35.77,17.526-43.525,32.975-34.491
			c3.203-9.034,14.861-3.452,14.861-3.452s2.332-25.691,27.687-21.027c16.323-18.653,63.244-15.156,63.534,20.982
			c16.03,0.583,15.447,13.57,15.447,13.57s11.95-12.695,23.607-6.576c6.994-18.068,40.51-7.285,30.891,17.196
			c14.282-0.584,18.944,13.988,16.03,21.857c18.068-3.498,28.56,13.406,28.56,13.406L810.328,561.38z"/>
		<path opacity="0.2" fill="#67A2A0" d="M783.506,561.24c0,0,1.072-19.312-17.701-18.239c-4.291-19.31-30.041-12.873-28.967,5.365
			c-27.357-5.365-44.522,13.25-44.522,13.25L783.506,561.24z"/>
		<path opacity="0.2" fill="#67A2A0" d="M233.754,561.616l-26.326-0.016l-76.25-0.08l-25.81-0.018l-14.969-0.016h-3.517
			l-46.263-0.049l-37.118-0.032l-44.214-0.032v-22.292c0,0,27.986-2.161,46.085,2.969c3.872,1.096,7.291,2.532,9.888,4.387
			c10.582-13.34,21.566-12.582,29.584-8.904c7.146,3.291,11.92,8.904,11.92,8.904s13.146-15.519,29.971-19.195
			c0.742-0.178,1.5-0.323,2.275-0.421c2.048-0.322,4.145-0.435,6.274-0.322c1.291,0.064,2.598,0.211,3.904,0.468
			c5.21,1,10.549,3.518,15.792,8.243c4.13-2.032,8.55-3.306,13.05-3.919c21.083-2.872,43.923,8.871,46.633,25.342
			c8.664-5.76,19.842-6.114,30.151-4.47c2.322,0.371,4.597,0.855,6.79,1.389c0.807,0.193,1.597,0.402,2.372,0.612
			c9.678,2.613,17.341,6.242,19.291,7.21C233.593,561.535,233.754,561.616,233.754,561.616z"/>
		<g>
			<path fill="#4C8E67" d="M900.358,357.336c-15.98,0-129.789,201.521-129.789,201.521h259.577
				C1030.146,558.857,916.34,357.336,900.358,357.336z"/>
			<path fill="#FFFFFF" d="M876.562,398.658c0,0-3.372,16.306,6.747,19.564c10.123,3.267,15.277-19.205,15.277-19.205
				s7.458,21.566,18.113,18.849c10.646-2.718,3.546-21.385,3.546-21.385s7.525,18.034,21.31,13.794
				c-19.424-30.195-35.83-52.939-41.197-52.939c-5.676,0-23.661,25.375-44.511,58.112
				C863.315,417.443,876.562,398.658,876.562,398.658z"/>
		</g>
		<g>
			<path fill="#4C8E67" d="M120.358,357.336c-15.98,0-129.789,201.521-129.789,201.521h259.577
				C250.146,558.857,136.34,357.336,120.358,357.336z"/>
			<path fill="#FFFFFF" d="M96.562,398.658c0,0-3.372,16.306,6.747,19.564c10.123,3.267,15.277-19.205,15.277-19.205
				s7.458,21.566,18.113,18.849c10.646-2.718,3.546-21.385,3.546-21.385s7.525,18.034,21.31,13.794
				c-19.424-30.195-35.83-52.939-41.197-52.939c-5.676,0-23.661,25.375-44.511,58.112C83.315,417.443,96.562,398.658,96.562,398.658
				z"/>
		</g>
		<g>
			<path fill="#61BB98" d="M765.113,386.065c-13.27,0-107.789,167.361-107.789,167.361h215.578
				C872.902,553.427,778.393,386.065,765.113,386.065z"/>
			<path fill="#FFFFFF" d="M745.359,417.381c0,0-2.806,13.547,5.597,16.25c8.407,2.709,12.688-15.949,12.688-15.949
				s6.188,17.904,15.035,15.649c8.851-2.261,2.953-17.758,2.953-17.758s6.249,14.971,17.693,11.454
				c-16.122-25.07-29.757-43.965-34.212-43.965c-4.71,0-19.644,21.072-36.962,48.263
				C734.35,432.984,745.359,417.381,745.359,417.381z"/>
		</g>
		<g>
			<path fill="#F5CA5F" d="M902.942,559.202c16.254-38.258,73.708-91.003,142.01-90.893c67.998,0.121,125.106,52.637,141.558,90.904
				L902.942,559.202z"/>
			<path fill="#EFA700" d="M902.962,559.202c16.143-37.986,72.881-90.265,140.557-90.873l-0.005,90.877L902.962,559.202z"/>
		</g>
		<g>
			<path fill="#96C011" d="M1002.014,553.004c9.109-20.963,44.377-50.816,86.499-50.816c42.119,0.004,77.376,29.862,86.487,50.822
				L1002.014,553.004z"/>
			<path opacity="0.53" fill="#82A600" d="M1087.604,553.006l-85.59-0.002c9.04-20.808,43.871-50.365,85.592-50.797
				L1087.604,553.006z"/>
		</g>
		<g>
			<path fill="#96C011" d="M56.014,551.002c9.109-20.963,44.377-50.816,86.499-50.816c42.119,0.004,77.376,29.862,86.487,50.822
				L56.014,551.002z"/>
			<path opacity="0.53" fill="#82A600" d="M141.604,551.004l-85.59-0.002c9.04-20.808,43.871-50.365,85.592-50.797L141.604,551.004z
				"/>
		</g>
		<g>
			<ellipse opacity="0.2" fill="#67A2A0" cx="402.455" cy="557.17" rx="257.949" ry="12.438"/>
			<polygon fill="#FA830D" points="615.414,556.13 188.406,556.13 237.253,459.575 287.379,360.503 539.207,360.503 			"/>
			<polygon opacity="0.1" fill="#8F75B2" points="520.357,418.763 475.909,556.132 306.027,556.13 			"/>
			<polygon opacity="0.3" fill="#F8F8F8" points="513.684,360.503 237.253,459.575 287.379,360.503 			"/>
			<path fill="#483D7F" d="M539.207,361.021c-0.286,0-0.516-0.231-0.516-0.516v-2.661c0-0.284,0.229-0.517,0.516-0.517
				s0.517,0.232,0.517,0.517v2.661C539.724,360.789,539.493,361.021,539.207,361.021z"/>
			<polygon fill="#FA830D" points="539.207,360.505 475.909,556.132 615.414,556.132 			"/>
			<polygon fill="#FDD465" points="529.264,556.132 539.207,360.505 475.909,556.132 			"/>
			<polygon fill="#483D7F" points="539.207,360.505 529.264,556.132 557.888,556.132 			"/>
			<polygon fill="#FCB42B" points="539.207,360.505 557.888,556.132 593.016,556.132 			"/>
			<rect x="175.383" y="543.552" fill="#483D7F" width="5.187" height="12.578"/>
			<rect x="634.006" y="543.552" fill="#483D7F" width="5.186" height="12.578"/>
			<rect x="451.852" y="543.552" fill="#483D7F" width="5.186" height="12.578"/>
			<g>
				<path fill="#483D7F" d="M456.009,546.355c-0.072,0-0.144-0.014-0.212-0.044c-0.26-0.116-0.377-0.423-0.26-0.684l83.638-186.309
					l0.492,0.947l95.983,185.335c0.132,0.254,0.032,0.564-0.222,0.696c-0.25,0.133-0.564,0.034-0.695-0.22L539.239,361.69
					L456.48,546.052C456.394,546.243,456.206,546.355,456.009,546.355z"/>
				<path fill="#483D7F" d="M179.232,546.355c-0.088,0-0.178-0.021-0.26-0.07c-0.246-0.143-0.33-0.459-0.186-0.705l108.075-185.217
					v-3.925c0-0.284,0.229-0.517,0.517-0.517c0.286,0,0.516,0.232,0.516,0.517v4.203L179.678,546.1
					C179.582,546.266,179.41,546.355,179.232,546.355z"/>
			</g>
		</g>
	</g>
</g>
</svg>
